<svg width="78" height="112" viewBox="0 0 78 112" fill="none" xmlns="http://www.w3.org/2000/svg">
<path fill-rule="evenodd" clip-rule="evenodd" d="M77.1579 0C76.7365 4.00269 76.4206 7.90002 76.2102 11.692C76.1047 15.3787 76.052 18.2227 76.052 20.224C76.052 22.752 76.1047 25.1219 76.2102 27.334C76.3152 29.546 76.4206 31.4946 76.5261 33.1801H72.8918C72.1545 25.8066 71.154 20.0133 69.8899 15.8C69.4719 14.3712 68.9499 13.075 68.3239 11.9113L68.2107 12.0405L68.1726 12.0851C67.9909 13.3311 68.1194 14.5869 68.55 15.7983C68.5896 15.8757 68.4558 15.9231 68.4167 15.8457C67.9387 14.6967 67.8103 13.4408 68.0237 12.2178C67.761 12.5334 67.4988 12.8491 67.2717 13.2151C67.2014 13.3086 67.1623 13.4252 67.0915 13.5187L67.0954 13.5458C66.9333 14.7335 67.6467 15.7649 68.3161 16.6918C68.6828 17.1783 69.0364 17.6736 69.3899 18.1689C69.7434 18.6643 70.0969 19.1597 70.4636 19.6462C70.4895 19.6827 70.4934 19.7225 70.4822 19.7565C70.4631 19.8158 70.3977 19.8574 70.3225 19.8333C68.9743 19.4495 67.4841 18.6709 66.8489 17.4064C66.4187 16.5828 66.3659 15.6483 66.5129 14.74C66.3254 15.1832 66.197 15.6455 66.0681 16.1078C66.0212 16.3002 65.9846 16.4855 65.9538 16.6693C65.9153 16.8976 65.8864 17.1235 65.8586 17.3579C66.0739 18.1969 66.718 18.7593 67.3576 19.3182C67.6955 19.6133 68.0324 19.9073 68.3044 20.2407C69.0525 21.1283 69.2947 22.2013 69.2932 23.3376L69.2971 23.3647C69.3132 23.4733 69.1208 23.5016 69.0774 23.3971C68.717 22.4432 68.0901 21.7113 67.4573 20.9728L67.4543 20.9688C67.1999 20.6719 66.9446 20.3739 66.7053 20.0601C66.386 19.6082 66.0632 19.1292 65.8733 18.6028C65.8874 18.698 65.8855 18.7819 65.8904 18.8704C65.8923 18.9078 65.8957 18.9462 65.9016 18.9866C66.1203 19.947 66.5593 20.8342 66.9978 21.7209C67.5139 22.765 68.0295 23.8082 68.1853 24.9692C68.1955 25.0374 68.1452 25.0793 68.0901 25.0872C68.0349 25.095 67.9748 25.0691 67.9651 25.0016C67.7741 23.9346 67.3054 22.9595 66.8371 21.9857L66.8357 21.9821L66.8342 21.978C66.5334 21.3528 66.2331 20.728 66.0061 20.0797C66.0827 20.6003 66.1848 21.1105 66.3005 21.6187C66.4148 22.1211 66.5427 22.6215 66.6721 23.1281L66.6887 23.194C66.7043 23.3025 66.5163 23.3579 66.4729 23.2534C66.1325 22.0841 65.7922 20.9148 65.6164 19.7213C65.5671 19.8473 65.5178 19.9733 65.4699 20.0996C65.4201 20.2306 65.3718 20.3619 65.3259 20.494C65.2502 20.7104 65.1814 20.929 65.1247 21.1515L65.0129 21.5746L64.8923 22.0369L64.8908 22.0449L64.8894 22.0511C64.8142 22.3442 64.739 22.6376 64.6574 22.9384C64.3689 24.0338 64.049 25.1061 63.4895 26.0752C63.4563 26.1195 63.3991 26.13 63.3464 26.1172C63.2878 26.103 63.2346 26.0602 63.2263 26.0031L63.2248 25.9514C63.1789 24.6991 63.1316 23.3962 63.5364 22.1886C63.9265 21.0228 64.7058 20.0215 65.5207 19.0703L65.4929 18.8804C65.4446 18.361 65.4514 17.8335 65.4856 17.3019C64.6975 18.0551 64.0276 18.8464 63.4641 19.7883C62.8811 20.7885 62.3025 22.0098 62.2185 23.1583C62.2175 23.1945 62.2063 23.2205 62.1887 23.2377C62.1496 23.276 62.0808 23.2699 62.0354 23.2338C62.0198 23.2213 62.0071 23.2053 61.9992 23.1863C61.9929 23.1714 61.9895 23.1547 61.9905 23.1364C62.0666 21.9336 62.6531 20.7666 63.26 19.7352C63.8664 18.7039 64.6223 17.7336 65.5515 16.9873C65.6477 16.1141 65.8816 15.2207 66.2097 14.3965C65.8889 14.8871 65.6858 15.4158 65.4197 15.8983C65.2932 16.118 65.156 16.3259 65.0105 16.5251C64.7951 16.8198 64.5608 17.0956 64.3152 17.3632C64.218 17.4696 64.1184 17.5754 64.0178 17.6812L63.8181 17.89C63.1013 18.6366 62.3684 19.4004 62.0398 20.4133C61.9812 20.5883 61.7414 20.485 61.7488 20.3452C61.7351 17.576 63.5354 14.7343 66.2361 13.8107C66.2634 13.8066 66.2595 13.7795 66.2868 13.7755C66.3342 13.7131 66.3889 13.7051 66.448 13.7241C66.5461 13.5398 66.6443 13.3555 66.7473 13.1703C66.8288 13.0234 66.9138 12.8761 67.0036 12.728C67.0739 12.6345 67.1169 12.545 67.1877 12.4515L66.4109 12.8983C65.5515 13.3571 64.716 13.7848 63.8093 14.1121C63.7307 14.1512 63.6833 14.0197 63.7619 13.9805C64.6052 13.6071 65.4411 13.1793 66.2102 12.6783C66.5666 12.4319 66.9475 12.1543 67.3 11.8807C67.3913 11.8119 67.4865 11.7424 67.5832 11.6744C67.7278 11.5728 67.8752 11.4747 68.0139 11.3878L68.0241 11.3772C67.6213 10.6902 67.1794 10.053 66.6989 9.46533L66.5364 9.42651L66.4143 9.3988C66.3357 9.38123 66.2566 9.36414 66.1765 9.34766C64.9983 9.79199 63.9616 10.5126 63.1106 11.4762C63.0617 11.5482 62.9558 11.4543 63.0041 11.3823C63.7785 10.4078 64.8147 9.68726 65.988 9.28162C65.8479 9.25488 65.7077 9.22815 65.5661 9.20374L65.4114 9.17822L65.32 9.16431L65.2073 9.1488L65.1125 9.13708L64.9729 9.12244L64.8572 9.11304L64.7517 9.10669C64.7273 9.10327 64.7024 9.10156 64.6775 9.10083C64.6438 9.09973 64.6096 9.10059 64.5754 9.10144H64.5696L64.5237 9.10242L64.4724 9.10217C64.4475 9.10144 64.4231 9.09961 64.3987 9.09619L64.3767 9.11292C63.259 9.54602 62.7019 10.6696 62.2156 11.7045C61.719 12.8168 61.1672 13.9015 60.6706 15.0138C60.6169 15.1245 60.4626 15.1027 60.4387 14.9811C60.1218 13.6157 60.0808 11.9347 60.8796 10.7666C61.3918 9.99146 62.1838 9.49255 63.05 9.1814C62.5715 9.23193 62.1047 9.34338 61.6379 9.45471C61.2097 9.57153 60.8371 9.71594 60.4426 9.87695C59.8127 10.4716 59.6325 11.3071 59.4533 12.1378C59.3586 12.5762 59.2644 13.0132 59.1047 13.4127C58.6906 14.4973 57.8694 15.2286 56.8742 15.7777L56.8523 15.7943C56.7654 15.8608 56.6472 15.7062 56.7175 15.6176C57.3777 14.8405 57.7146 13.9376 58.0539 13.0264C58.1911 12.6584 58.3288 12.2892 58.4885 11.9263C58.6281 11.6368 58.7756 11.3419 58.947 11.063C59.0705 10.8618 59.2063 10.6689 59.3606 10.4926C59.3059 10.5343 59.2527 10.5663 59.1994 10.5984C59.1462 10.6301 59.093 10.6619 59.0383 10.7032C58.3049 11.3585 57.7424 12.1705 57.1799 12.9822L57.177 12.9858C56.5134 13.9434 55.8503 14.9001 54.9099 15.5985C54.801 15.6816 54.6662 15.5049 54.7751 15.4218C55.6184 14.7361 56.2458 13.8516 56.8723 12.968C57.2737 12.4021 57.675 11.8365 58.1325 11.3241C57.719 11.6395 57.3264 11.972 56.9421 12.3151C56.8371 12.4086 56.7331 12.5029 56.6291 12.5979L56.4328 12.7786L56.1526 13.0402L55.8811 13.2946L55.8 13.3711L55.7385 13.4293C55.6511 13.4958 55.5114 13.3579 55.5818 13.2693C56.4402 12.4052 57.2981 11.5411 58.2575 10.8096C57.9939 10.845 57.7302 10.8804 57.4685 10.9246C57.2331 10.9644 56.9992 11.0114 56.7683 11.0719C56.5989 11.1136 56.4323 11.1558 56.2678 11.1981L55.8728 11.3002C55.5779 11.3767 55.2829 11.4532 54.9782 11.5283C53.8806 11.8066 52.7873 12.0463 51.6687 12.026C51.6101 12.0177 51.572 11.9672 51.5598 11.9105C51.5476 11.855 51.5608 11.7936 51.6042 11.7606L51.6452 11.7357C52.7195 11.089 53.8381 10.4158 55.0915 10.1844C56.3005 9.96118 57.5539 10.1582 58.781 10.4105L58.9333 10.2942C59.3645 10.0004 59.8293 9.75073 60.3108 9.52332C59.2702 9.19873 58.2536 8.99573 57.1565 8.95886C55.9992 8.93311 54.6501 9.01831 53.6047 9.5011C53.4573 9.57886 53.3879 9.35217 53.5139 9.29114C54.6028 8.77515 55.9079 8.72314 57.1042 8.75439C58.3 8.78552 59.5149 8.97717 60.6179 9.42871C61.4284 9.09009 62.3235 8.86182 63.2033 8.74988C62.844 8.72327 62.4929 8.74268 62.1482 8.76172L62.1408 8.76208C61.9275 8.7738 61.7165 8.7854 61.5071 8.78577C60.8786 8.77576 60.282 8.67175 59.6906 8.52893C59.6037 8.5083 59.5168 8.48669 59.4299 8.4646C59.2829 8.42712 59.135 8.38806 58.987 8.34875C57.9875 8.0835 56.9646 7.81226 55.9197 8.01538C55.8176 8.03418 55.7649 7.95984 55.761 7.88049C55.7605 7.86609 55.761 7.85144 55.7634 7.83728C55.7658 7.823 55.7698 7.80908 55.7756 7.79602C55.7883 7.76672 55.8093 7.74207 55.8386 7.72791C58.2546 6.37463 61.613 6.57373 63.7287 8.48901C63.7458 8.51111 63.7673 8.49451 63.7844 8.5166C63.8244 8.52234 63.8528 8.53687 63.8723 8.55798C63.8781 8.56458 63.8835 8.5719 63.8879 8.57983C63.8967 8.59534 63.9031 8.61316 63.907 8.63257C64.2815 8.62634 64.6565 8.62024 65.0476 8.63623C65.1057 8.64441 65.1594 8.64709 65.2131 8.64966L65.2864 8.65381L65.3401 8.65845L65.3786 8.66333L64.6115 8.20007C63.7942 7.67053 63.0154 7.14648 62.2898 6.51172C62.2175 6.46204 62.3098 6.35681 62.3821 6.40649C63.1174 6.96387 63.8962 7.48792 64.7068 7.91785C65.0305 8.07849 65.3806 8.24304 65.7258 8.39539C64.9787 7.65784 64.155 7.01868 63.2541 6.47803C60.094 4.58203 55.196 3.63403 48.5598 3.63403H44.926C41.3445 3.63403 38.6062 3.94995 36.7102 4.58203C34.9192 5.10864 33.7077 6.31995 33.0759 8.21594C33.0007 8.42847 32.9304 8.65588 32.8645 8.89819C33.5866 8.53589 34.3684 8.28125 35.1457 8.07178C36.6179 7.66052 38.1491 7.39612 39.6804 7.13171C39.7531 7.11023 39.8205 7.15491 39.8459 7.2179C39.863 7.26099 39.8611 7.3125 39.8279 7.35742C38.8147 8.51807 37.4685 9.38916 35.968 9.84521C35.2546 10.0647 34.4997 10.2096 33.7317 10.2354C33.4426 10.2567 33.1062 10.2738 32.7737 10.2441C33.8694 10.8379 34.9045 11.5679 35.8088 12.4279C35.8327 12.4299 35.8542 12.4554 35.8781 12.4576C35.906 12.4128 35.9319 12.3916 35.9577 12.3702C36.9939 11.7548 38.3894 11.6671 39.5764 11.7732C40.9529 11.8964 42.3264 12.326 43.6223 12.8197C43.7844 12.8815 43.7414 13.0901 43.5949 13.1241C41.282 13.838 38.6281 13.8131 36.3386 12.9237C36.6892 13.2856 37.0139 13.6688 37.3147 14.0498C37.7434 14.6075 38.1228 15.1844 38.4739 15.806C38.5276 15.8699 38.5759 15.9332 38.6242 15.9966C38.6726 16.0598 38.7209 16.1232 38.7746 16.187C40.7365 17.2596 42.6189 18.4196 43.8342 20.3461C43.8991 20.4227 43.7702 20.5292 43.6775 20.4973C41.8459 19.8378 40.2868 18.5415 39.0832 17.0173C39.9363 18.9823 40.3391 21.1666 40.218 23.3278C40.2073 23.4448 40.0173 23.4279 40.0061 23.2852C40.0427 22.3441 39.9817 21.418 39.8239 20.5067C39.6711 22.2164 38.9289 23.8263 37.7175 25.0636C37.675 25.0985 37.615 25.0895 37.571 25.0587C37.5344 25.0333 37.5085 24.9932 37.5124 24.9508C37.8396 23.1622 38.2986 21.2438 39.6843 19.9277C39.5359 19.1825 39.3156 18.431 39.0202 17.72C38.8054 17.1814 38.5622 16.6875 38.2956 16.1914C38.4641 16.9856 38.4577 17.8585 38.343 18.6038C38.1545 19.9089 37.5906 21.1333 36.6911 22.0916C36.6374 22.1576 36.5207 22.1235 36.5295 22.0299C36.594 21.3073 36.5974 20.5714 36.6003 19.8367C36.6028 19.2855 36.6052 18.735 36.6335 18.191C36.7038 17.135 36.8191 15.8469 37.4509 14.9354C37.469 14.9204 37.4753 14.9043 37.4861 14.897C37.4905 14.8939 37.4958 14.8923 37.5027 14.8929C36.8445 13.9604 36.0588 13.1112 35.1701 12.347C35.0774 12.3152 34.9865 12.2598 34.8957 12.2045C34.8738 12.179 34.8781 12.1321 34.8801 12.1086C34.7903 12.0414 34.7063 11.9746 34.6223 11.9078C34.5388 11.8416 34.4553 11.7753 34.3659 11.7085C34.5779 12.0109 34.7644 12.3344 34.8777 12.675C35.1775 13.599 35.1804 14.6379 35.1443 15.5791C35.0735 17.4377 34.4836 19.4861 32.9182 20.6682C32.843 20.7086 32.7478 20.7002 32.7326 20.6044C32.6828 19.8208 32.5837 19.0565 32.5578 18.2751C32.5324 17.4938 32.5779 16.7188 32.6487 15.9225C32.8127 14.3553 33.1648 12.8287 33.7043 11.3425L33.5744 11.1892C33.2302 10.9642 32.8767 10.7584 32.5154 10.5669C32.2575 12.1971 32.1281 14.2574 32.1281 16.748V32.2012C32.1433 32.2134 32.1574 32.2277 32.1697 32.2439C32.1799 32.2573 32.1892 32.2721 32.1965 32.2882C33.9724 36.028 35.532 40.0414 35.3098 44.2346C35.3264 44.1581 35.3884 44.0514 35.405 43.9749C35.3528 42.3635 35.385 40.7301 35.5305 39.121C35.3738 38.9275 35.4309 38.6597 35.5769 38.5309C35.6238 37.9408 35.7087 37.3588 35.7932 36.7767C35.7761 36.7812 35.761 36.7845 35.7473 36.7867L35.7195 36.7898C35.6784 36.7922 35.6448 36.7852 35.5954 36.7745C34.9895 36.6451 35.1936 35.6886 35.8 35.818C35.8757 35.8342 35.9514 35.8503 35.9812 35.8967C36.0154 35.8741 36.053 35.8634 36.0852 35.8649C36.1389 35.8672 36.1775 35.9037 36.1623 35.9755L36.1379 36.0902C36.1809 36.2594 36.1399 36.4508 36.0696 36.5957C35.9768 37.2159 35.884 37.8363 35.8288 38.4646L35.8669 38.4727C36.3591 38.5779 36.2038 39.3048 35.7331 39.2843C35.6531 40.5873 35.6189 41.8602 35.6604 43.1493L35.802 42.7589C35.946 42.3545 36.0886 41.9326 36.2092 41.5062C36.9299 39.0597 37.2795 36.494 37.112 33.938C37.1018 33.6157 37.5432 33.5898 37.5915 33.9203C37.904 36.9075 37.3425 39.908 36.3728 42.7814L36.8606 42.1654C37.031 41.9631 37.2033 41.7529 37.3728 41.5375C37.4319 41.4623 37.4905 41.3865 37.5486 41.3102C37.6877 41.1285 37.823 40.9441 37.9533 40.7584C38.2868 40.3096 38.612 39.899 38.9455 39.4502L38.8698 39.434C38.4153 39.3369 38.5622 38.6482 39.0168 38.7452C39.1687 38.7776 39.2658 38.8784 39.279 39.0013C39.4182 38.8115 39.5598 38.6122 39.7009 38.4128L39.8249 38.2384L40.0295 37.9532L40.1252 37.8218C40.1526 37.7872 40.195 37.7762 40.2346 37.7799C40.2732 37.7834 40.3083 37.801 40.323 37.824L40.2932 37.7776C40.2903 37.7661 40.2883 37.7548 40.2868 37.7435C40.2824 37.7163 40.282 37.6898 40.2839 37.6638C40.2859 37.639 40.2898 37.6146 40.2942 37.5905L40.3044 37.5399C40.3205 37.4634 40.3288 37.4252 40.383 37.3567C40.3991 37.2802 40.4455 37.25 40.5295 37.2279C40.5598 37.1897 40.5989 37.1659 40.6423 37.1486C40.677 37.1348 40.7141 37.1251 40.7512 37.1154C40.8352 37.0933 40.9489 37.1174 41.0163 37.1719L41.0544 37.1801C41.0925 37.1881 41.1218 37.2345 41.1599 37.2426L41.2785 37.428C41.3083 37.4742 41.3381 37.5206 41.3298 37.559C41.3415 37.5773 41.3459 37.6003 41.3464 37.6262C41.3469 37.6658 41.3371 37.712 41.3269 37.7583L41.3025 37.873C41.2942 37.9114 41.2483 37.9415 41.24 37.9797L41.0559 38.1005C41.0359 38.1138 41.008 38.1255 40.9802 38.1338C40.945 38.1443 40.9094 38.1492 40.8879 38.1447L40.8503 38.1366C40.7663 38.1587 40.6526 38.1344 40.5852 38.08L40.3821 37.9166L40.3523 37.8702L40.3362 37.9468C39.6448 38.9594 38.9612 39.9336 38.2322 40.938C37.5105 41.9042 36.8191 42.9166 35.9924 43.8203C35.9782 43.887 35.9543 43.938 35.9319 43.9915C35.9153 44.0302 35.8996 44.0702 35.8894 44.1183C35.927 44.1263 35.9734 44.0962 36.011 44.1042C36.5749 43.5045 37.1682 42.9512 37.821 42.4905C38.198 42.2108 38.6042 41.9775 39.0105 41.7443C39.4167 41.511 39.8528 41.3241 40.2888 41.1371C40.3396 41.1238 40.3982 41.1414 40.4411 41.176C40.4695 41.1987 40.4914 41.2288 40.4997 41.2622C40.5227 42.2672 39.6072 43.0319 38.8406 43.4683C37.9817 43.965 37.0422 44.2844 36.0891 44.481C36.0661 44.4961 36.053 44.5132 36.0393 44.5303C36.0324 44.5389 36.0256 44.5476 36.0173 44.556C36.0095 44.5642 36.0002 44.5721 35.989 44.5796C35.9348 44.6481 35.821 44.6238 35.7912 44.5774C35.5222 45.2802 35.2073 46.0129 34.9006 46.7076C34.0544 48.5986 33.0974 50.4351 32.1281 52.2642V55.4987C32.6531 55.1238 33.1819 54.7566 33.7146 54.399C34.3894 53.946 35.07 53.5085 35.7561 53.0911C35.8147 53.0526 35.8781 53.0586 35.9265 53.0894C35.9919 53.1309 36.029 53.2175 35.9885 53.3008C34.9177 54.917 33.675 56.6224 32.1281 57.8513V65.098C34.3044 63.094 36.3679 61.0621 38.2116 58.8724C38.1062 58.9042 38.0378 58.8673 38.0071 58.7616C37.4099 56.6128 37.3088 54.1991 37.5139 51.9517C37.7195 49.7041 38.2531 47.5012 39.112 45.4301C39.1252 45.3876 39.1482 45.3593 39.1765 45.343C39.2048 45.3267 39.2385 45.3228 39.2727 45.3291C39.3239 45.3386 39.3757 45.3713 39.4114 45.4198C39.4338 45.4501 39.4499 45.4866 39.4558 45.5275C40.1023 49.6167 40.4636 53.9072 39.0652 57.8667C39.1028 57.798 39.1926 57.7133 39.2302 57.6444C39.6355 56.0841 40.1277 54.5264 40.7224 53.0239C40.6267 52.7941 40.7571 52.5532 40.9338 52.4711C41.1457 51.9183 41.3913 51.3839 41.6369 50.8496C41.5505 50.847 41.5163 50.8286 41.448 50.7916C40.9035 50.4962 41.3694 49.6364 41.9143 49.9319C41.9826 49.9688 42.0505 50.0057 42.0661 50.0586C42.1081 50.0459 42.1496 50.0471 42.1809 50.0596C42.2278 50.0784 42.2512 50.1232 42.2175 50.1853L42.1618 50.2885C42.1589 50.3688 42.1374 50.4485 42.1047 50.5228C42.0661 50.61 42.0119 50.6897 41.9533 50.754C41.6887 51.3228 41.4245 51.8915 41.1941 52.4788L41.2282 52.4972C41.6711 52.7373 41.3166 53.3907 40.8708 53.2379C40.4255 54.4652 40.0329 55.6765 39.7082 56.9248C40.0378 56.4802 40.3855 56.0012 40.6994 55.5039C42.0818 53.3607 43.1428 50.9985 43.7048 48.4995C43.7859 48.1874 44.2165 48.2874 44.1692 48.6179C43.6252 51.5717 42.2385 54.2911 40.4958 56.7732L41.1379 56.3203C41.3113 56.2057 41.487 56.0867 41.6628 55.9639C41.9748 55.7461 42.2864 55.5166 42.5837 55.2795C42.8069 55.1113 43.0256 54.9518 43.2444 54.7922C43.4631 54.6327 43.6819 54.4731 43.9055 54.3051L43.8371 54.2682C43.4284 54.0465 43.7644 53.4275 44.1731 53.6492C44.3093 53.723 44.3742 53.8472 44.3523 53.9689C44.4968 53.8588 44.6443 53.7435 44.7922 53.6271L44.9255 53.5221C45.1174 53.3706 45.3098 53.2192 45.4973 53.0765C45.5686 53.0261 45.6706 53.0815 45.6858 53.1344L45.6706 53.0815C45.674 52.9944 45.7112 52.9255 45.7483 52.8568C45.7859 52.788 45.8044 52.7535 45.8757 52.7032C45.9128 52.6345 45.9656 52.6185 46.0525 52.6211C46.1238 52.5708 46.2107 52.5734 46.2976 52.5759C46.384 52.5784 46.4861 52.6338 46.5359 52.7052L46.5696 52.7236C46.5827 52.7307 46.5935 52.7429 46.6028 52.7563L46.6145 52.7726C46.6262 52.7889 46.6379 52.8048 46.6535 52.8134L46.7151 53.0249C46.7239 53.0564 46.7331 53.0879 46.7351 53.1156C46.7365 53.1343 46.7346 53.1511 46.7273 53.1649C46.7424 53.2178 46.7053 53.2866 46.6677 53.3553L46.612 53.4585C46.6028 53.4758 46.5847 53.4885 46.5666 53.5012C46.549 53.5137 46.531 53.5261 46.5217 53.5432L46.3113 53.6069C46.2585 53.6229 46.1716 53.6204 46.1374 53.6019L46.1037 53.5834C46.0168 53.5808 45.9148 53.5255 45.865 53.4541L45.717 53.2401L45.7014 53.1873L45.6643 53.2561C44.7146 54.0319 43.7839 54.7732 42.8 55.5305C42.3176 55.892 41.8391 56.2666 41.3498 56.6301C40.8611 56.9935 40.3615 57.3457 39.8371 57.6622C39.7815 57.7654 39.7102 57.8158 39.654 57.9189C39.6711 57.9281 39.6926 57.9287 39.7141 57.9293C39.7361 57.9301 39.7575 57.9307 39.7746 57.9399C40.4851 57.524 41.2107 57.161 41.9675 56.9036C42.2204 56.8107 42.4787 56.7351 42.739 56.6671C42.9294 56.6172 43.1213 56.5713 43.3132 56.5254L43.3191 56.5239C43.7746 56.415 44.2458 56.359 44.717 56.3029C44.8034 56.3054 44.8869 56.3953 44.884 56.4825C44.6218 57.4531 43.5271 57.9276 42.6687 58.1295C41.7043 58.3633 40.7131 58.4042 39.7434 58.3234C39.717 58.3313 39.6989 58.344 39.6809 58.3566C39.6628 58.3691 39.6452 58.3816 39.6194 58.3895C39.5837 58.4144 39.5412 58.4135 39.5051 58.3998C39.4812 58.3907 39.4607 58.3762 39.4465 58.36C39.4387 58.351 39.4333 58.3413 39.4304 58.3317C39.1633 58.6814 38.8781 59.0365 38.5896 59.3871C38.3845 59.636 38.1775 59.8826 37.9739 60.1232C36.4533 61.902 34.8166 63.574 33.1814 65.2446L33.1316 65.2952C32.7966 65.6375 32.4616 65.9797 32.1281 66.3228V68.0208L32.2092 67.9901C33.7937 67.425 35.3933 66.913 36.99 66.488C37.0515 66.4695 37.1062 66.4875 37.1438 66.5236C37.2033 66.5804 37.2204 66.682 37.1535 66.7549C35.6594 68.0107 33.9734 69.3042 32.1281 70.0435V95.116C32.1281 98.5288 32.427 101.174 33.0241 103.051L33.0134 102.947L32.9704 102.519C32.8635 101.509 32.8406 100.49 32.9944 99.4768C32.7234 98.6846 32.5735 97.8374 32.4797 97.0505C32.4348 96.6669 32.4182 96.2817 32.425 95.8971C32.428 95.7236 32.4358 95.5503 32.448 95.3772C32.4538 95.2904 32.4612 95.2037 32.4695 95.1171C32.4909 94.8916 32.5198 94.6669 32.5549 94.443C32.8391 92.6843 33.5456 91.0204 34.2385 89.3911C34.3196 89.1829 34.6101 89.3087 34.529 89.517C33.6169 92.2748 33.2566 95.1545 33.3967 97.9792C33.5671 97.3876 33.8176 96.8451 34.1169 96.2806C34.1926 96.1892 34.3537 96.2877 34.3132 96.3918C33.8523 97.3727 33.5393 98.4868 33.4065 99.5477C33.4055 99.5609 33.4065 99.5723 33.407 99.5825V99.5885V99.595V99.6021C33.4079 99.6259 33.4089 99.6432 33.4006 99.6647C33.4084 99.6823 33.4118 99.6981 33.4138 99.7135C33.4157 99.729 33.4162 99.7441 33.4197 99.7601L33.4231 99.7755L33.4304 99.7943C33.4284 99.8367 33.4206 99.8666 33.4074 99.884C33.4026 99.8906 33.3967 99.8954 33.3899 99.8983C33.3601 100.284 33.365 100.682 33.3698 101.08C33.3591 101.056 33.3835 101.045 33.4079 101.034C33.5725 100.559 33.8069 100.11 34.052 99.6843C34.5158 98.9025 35.1194 98.1716 35.7199 97.4993C36.9729 96.0741 38.4299 94.8424 40.0427 93.826C40.0754 93.8027 40.1091 93.7991 40.1379 93.808C40.1496 93.8116 40.1609 93.8174 40.1706 93.8248C40.1814 93.8325 40.1902 93.8422 40.197 93.853C40.2219 93.892 40.2229 93.9473 40.1775 93.9939C39.3264 94.749 38.6814 95.6892 38.0373 96.6276C37.7356 97.0676 37.4338 97.5073 37.1111 97.9274C36.1008 99.2428 34.8401 100.328 33.5691 101.39C33.5354 101.477 33.5075 101.561 33.4797 101.645C33.4524 101.729 33.4245 101.813 33.3908 101.9C33.3996 101.992 33.4094 102.083 33.4197 102.173L33.4577 102.498C33.4812 102.695 33.5046 102.892 33.5246 103.097C33.5788 103.532 33.6262 103.984 33.6521 104.441C33.7131 104.539 33.7766 104.636 33.8425 104.73C33.9865 104.936 34.1423 105.132 34.3093 105.319C34.5608 104.813 34.8132 104.311 35.0793 103.823C35.7531 102.603 36.6076 101.329 37.841 100.571C37.9997 100.47 38.1828 100.616 38.0803 100.777C37.2639 102.005 36.5627 103.294 35.9319 104.609C35.7531 104.974 35.5398 105.318 35.303 105.647C35.216 105.768 35.1257 105.887 35.0329 106.004C35.655 106.505 36.3918 106.908 37.2444 107.212C38.49 104.312 40.6609 101.788 43.133 99.8766C43.1692 99.8666 43.1692 99.8666 43.1819 99.8438C43.3396 99.7225 43.4973 99.9877 43.3987 100.112C42.6159 101.131 41.9646 102.266 41.3122 103.403C40.4695 104.873 39.6252 106.346 38.4929 107.574L38.6828 107.619C39.4519 107.067 40.1599 106.385 40.8293 105.775C41.5739 105.084 42.3752 104.455 43.279 103.971C43.7512 103.279 44.3391 102.651 44.9133 102.105C45.5481 101.502 46.2741 101.01 47.0456 100.602C48.6233 99.7754 50.3791 99.3438 52.0984 98.9221C52.3137 98.8622 52.3869 99.1702 52.1721 99.2301C49.4177 100.153 46.8962 101.59 44.719 103.395C45.2947 103.177 45.8791 103.052 46.5105 102.954C46.6286 102.959 46.6467 103.148 46.5393 103.178C45.4778 103.396 44.3982 103.813 43.469 104.343C43.4504 104.355 43.4372 104.367 43.426 104.376L43.406 104.392C43.3962 104.399 43.386 104.405 43.3723 104.409C43.3684 104.416 43.3645 104.422 43.3601 104.428L43.3528 104.437L43.3357 104.454L43.3298 104.459L43.3161 104.472L43.3034 104.485C43.2976 104.492 43.2917 104.5 43.2864 104.51C43.238 104.543 43.2019 104.553 43.1784 104.54C42.8615 104.741 42.5559 104.976 42.2492 105.211L42.2463 105.213L42.2375 105.22C42.2497 105.218 42.2649 105.226 42.28 105.235C42.759 105.082 43.2595 105 43.7468 104.942C44.6506 104.844 45.5974 104.889 46.4958 104.967C48.3874 105.116 50.2463 105.544 52.0266 106.226C52.156 106.268 52.1145 106.453 51.9729 106.435C50.8591 106.206 49.7204 106.253 48.5832 106.3C48.0495 106.322 47.5163 106.344 46.9865 106.338C45.3279 106.317 43.7038 105.958 42.092 105.577C41.9123 105.627 41.7566 105.69 41.5774 105.74C41.4236 105.88 41.2785 106.018 41.1335 106.156C40.9914 106.292 40.8493 106.427 40.6985 106.565C40.5676 106.691 40.4338 106.818 40.2971 106.944C40.2141 107.021 40.1301 107.097 40.0451 107.172C39.8181 107.375 39.5832 107.574 39.3406 107.763C40.0603 107.911 40.8547 108.045 41.7243 108.163C42.9167 108.043 44.1775 108.059 45.3078 108.506C45.3298 108.514 45.3489 108.525 45.365 108.538C46.2229 108.603 47.1296 108.658 48.0862 108.704V111.864C45.3474 111.653 41.8713 111.548 37.6579 111.548C33.4446 111.443 29.1784 111.39 24.8601 111.39C20.7522 111.39 16.9074 111.443 13.3259 111.548C9.74485 111.548 6.84788 111.653 4.63596 111.864V108.704C8.2175 108.493 10.9031 108.072 12.6941 107.44C13.9704 107.015 14.9602 106.303 15.6638 105.304C14.7239 105.395 13.7834 105.339 12.8757 105.099C11.6506 104.776 10.6096 104.175 9.59934 103.407C9.53977 103.362 9.55784 103.262 9.63499 103.207C10.6208 102.797 11.7219 102.685 12.781 102.806C10.7531 101.683 8.92209 100.217 7.65745 98.2307C7.47629 97.9224 7.29514 97.6139 7.14719 97.3114C7.01926 97.0815 6.75217 96.6887 6.8386 96.3939C6.90745 96.1993 7.08909 96.1285 7.28538 96.1638C7.49973 96.1837 7.72581 96.2456 7.94895 96.3148L8.12766 96.3713C8.25852 96.4132 8.38743 96.4543 8.51096 96.4874C10.0847 96.9424 11.4914 97.5743 12.614 98.8451C13.156 99.4562 13.6037 100.156 14.0437 100.845L14.2297 101.135C14.0378 100.755 13.8498 100.372 13.6628 99.9874L13.3698 99.384C12.614 97.8239 11.8581 96.2635 10.9387 94.8198C7.5134 94.8944 4.10227 93.3851 1.48411 91.2252C1.36497 91.1349 1.42795 90.9736 1.57053 90.9304C3.48459 90.6189 5.43918 90.832 7.27122 91.5404C7.93479 91.7975 8.61838 92.1272 9.25168 92.5513C7.98899 91.1176 6.48215 89.9159 4.82883 88.9637C4.55247 88.8107 4.77317 88.333 5.05002 88.4862C6.97336 89.6248 8.70041 91.1074 10.1828 92.8219C9.63694 91.7239 9.23997 90.5491 9.01829 89.3368C9.0051 89.3175 8.99192 89.2982 8.98752 89.2762C8.98264 89.2537 8.98704 89.2283 9.0095 89.1974C8.8386 88.27 8.7385 87.321 8.7429 86.3562C8.64475 86.3386 8.69553 86.2443 8.74045 86.1833C8.74387 85.9733 8.75168 85.76 8.7634 85.5449C8.77268 85.3795 8.7844 85.2131 8.79856 85.0461C8.82004 84.7903 8.84739 84.5333 8.87961 84.2772C8.90989 84.1102 9.08567 84.0729 9.20432 84.1631C10.8572 85.4945 12.2561 87.2975 12.863 89.3721C13.1384 90.2837 13.2322 91.2661 13.1682 92.1857L13.1623 92.2191C13.0891 93.3784 12.7483 94.5242 12.1247 95.5502L12.1516 95.5895C12.821 96.7094 13.4099 97.8818 13.9983 99.0538L14.0027 99.0637C14.7781 100.609 15.553 102.152 16.5105 103.573C16.5364 103.493 16.5622 103.411 16.5871 103.328C16.133 102.04 15.8049 100.706 15.5984 99.3464C15.4489 98.3754 15.4206 97.3973 15.3923 96.4233V96.4178C15.3581 95.2594 15.3239 94.1068 15.0866 92.9785C15.051 92.7997 15.3044 92.7073 15.4231 92.7976C16.3186 93.5665 16.9739 94.4846 17.4328 95.4939L17.4338 95.116V86.0902C17.2722 86.1365 17.1096 86.1775 16.9455 86.213C16.6804 86.2705 16.4118 86.3136 16.1408 86.3413C14.8801 86.47 13.6946 86.274 12.4782 85.9113C12.4065 85.8899 12.3884 85.7898 12.4416 85.7109C13.2199 84.981 14.2107 84.4879 15.2448 84.2285C12.9514 83.8915 10.7214 83.1632 8.8386 81.7498C8.66672 81.6111 8.49534 81.4723 8.33127 81.332C8.22971 81.245 8.13108 81.1575 8.03684 81.0691C7.83665 80.8989 7.44797 80.6252 7.42551 80.3188C7.42161 80.1125 7.56663 79.9823 7.76243 79.9462C8.0261 79.8741 8.33127 79.8586 8.62522 79.8436C8.76243 79.8367 8.8967 79.8298 9.02366 79.8175C10.6565 79.6895 12.1955 79.7858 13.6941 80.5797C14.4177 80.9618 15.0847 81.4608 15.7405 81.9514L16.0124 82.1545C15.5359 81.7161 15.0652 81.2688 14.5945 80.8215L14.5915 80.8182C13.3347 79.624 12.0774 78.4297 10.7087 77.4021C7.52903 78.6777 3.8054 78.4661 0.593969 77.3662C0.450903 77.3235 0.452856 77.1506 0.57102 77.0598C2.25315 76.0945 4.15745 75.6057 6.1218 75.6238C6.83274 75.6309 7.58909 75.6987 8.33127 75.8727C6.64475 74.9753 4.81125 74.3811 2.92844 74.0719C2.61594 74.026 2.65452 73.5012 2.96702 73.5471C5.16868 73.9357 7.30686 74.7153 9.29807 75.7982C8.40012 74.9626 7.61497 74.0028 6.98118 72.9462C6.94211 72.9188 6.90354 72.8915 6.92356 72.8187C6.43674 72.011 6.0095 71.158 5.67405 70.2534C5.63694 70.2603 5.61594 70.2494 5.6052 70.2294C5.59836 70.2168 5.59592 70.2007 5.59592 70.183C5.59592 70.1539 5.60276 70.1207 5.61057 70.0925C5.52463 69.8524 5.44309 69.6056 5.36643 69.3545C5.25706 68.9961 5.15793 68.6288 5.07004 68.2594C5.03928 68.0924 5.19065 67.9956 5.33372 68.0382C7.34934 68.7025 9.29319 69.8976 10.592 71.6257C11.1706 72.382 11.6042 73.2684 11.8684 74.1516L11.8742 74.1849C12.2141 75.2958 12.2986 76.4882 12.0764 77.668L12.115 77.6953C13.1369 78.5089 14.1023 79.4003 15.0666 80.2911L15.0696 80.2944L15.0842 80.3073L15.0901 80.3127L15.1076 80.3292C15.8738 81.0367 16.6394 81.7437 17.4338 82.4102V81.2732C17.1633 80.8578 16.907 80.4325 16.6638 79.9985C16.4782 79.6688 16.3093 79.3318 16.1501 78.9905C15.8967 78.4458 15.6692 77.8903 15.4421 77.3362C15.0017 76.2617 14.5632 75.1926 13.9426 74.2183C13.8469 74.0635 14.051 73.8878 14.1941 73.9304C15.5027 74.4077 16.5715 75.1974 17.4338 76.1844V72.175C15.4031 71.9697 13.4626 71.0964 12.0271 69.6675C12.0002 69.6456 12.0022 69.6113 12.0183 69.582C12.0393 69.5447 12.0837 69.5154 12.1228 69.5303C13.0114 69.9663 13.9743 70.1602 14.9377 70.3541C15.2405 70.415 15.5432 70.476 15.8435 70.5444C16.3889 70.6573 16.9153 70.8167 17.4338 71.0031V70.4478C17.1667 70.1665 16.9162 69.8702 16.6814 69.567C15.7312 69.7557 14.6755 69.4382 13.8274 69.1056C13.4128 68.9441 13.011 68.7617 12.6096 68.5796C12.4089 68.4886 12.2082 68.3977 12.0066 68.3094L11.7932 68.2173C11.4607 68.0765 11.1233 67.9457 10.7746 67.8363C10.7048 67.8099 10.7116 67.6925 10.8005 67.6726C11.8396 67.5973 12.8508 67.7249 13.8342 68.0551C14.7634 68.3517 15.6838 68.8048 16.5129 69.317L16.3894 69.1466L16.1711 68.8383C16.0368 68.6467 15.9045 68.4543 15.7722 68.2618L15.7575 68.2399L15.7341 68.2065L15.7297 68.2007L15.7253 68.1948L15.7209 68.189C15.5725 67.973 15.424 67.7571 15.2737 67.5422C15.1672 67.3905 15.0598 67.2393 14.9499 67.0889C14.7512 66.8142 14.5202 66.5538 14.2888 66.2935C13.5129 66.8354 12.4997 66.5942 11.6194 66.3848L11.4201 66.3376L11.2717 66.3037C10.0783 66.0277 8.85666 65.821 7.64231 65.6305C7.53977 65.6184 7.53928 65.4851 7.64475 65.458C8.76536 65.2135 9.88645 65.2357 10.9841 65.3823C11.8547 65.5062 12.6892 65.7202 13.53 65.9358L13.5813 65.9487L13.8894 66.0276L14.1418 66.0913C13.7517 65.6912 13.3357 65.3214 12.8684 65.0122C11.9973 64.4042 11.0046 63.9637 9.9675 63.7333C9.81809 63.7036 9.8552 63.4778 10.0051 63.5073C11.0022 63.7362 11.9573 64.1359 12.8005 64.6801C11.7121 63.3103 11.0622 61.6527 10.9587 59.9075C10.9548 59.86 10.9861 59.8182 11.0276 59.7964C11.0818 59.7677 11.1535 59.7736 11.1853 59.8462C11.4699 60.6263 11.8781 61.3522 12.2864 62.0781L12.2878 62.0818C12.841 63.0657 13.3948 64.0498 13.6394 65.1691C13.6531 65.2009 13.6345 65.2473 13.6018 65.2616C13.8088 65.4305 14.0056 65.6041 14.1897 65.7866C14.3298 65.9252 14.4626 66.0687 14.5876 66.2194C14.6389 66.292 14.6999 66.3416 14.7512 66.4142C14.1272 64.9929 13.926 63.4241 14.1682 61.889C14.1819 61.7877 14.343 61.755 14.3689 61.858C14.9275 63.5747 15.1897 65.3263 15.2815 67.1338C15.4548 67.384 15.6242 67.6357 15.7927 67.886L15.8044 67.9043L15.8293 67.9417L15.8601 67.9882L16.175 68.4507L16.3796 68.7469L16.6672 69.1351C15.7092 67.1747 15.7873 64.7782 16.0041 62.6069C16.0178 62.5055 16.2024 62.4817 16.1955 62.599V62.606C16.2263 63.4283 16.2571 64.2507 16.4553 65.0564C16.5666 65.4999 16.7229 65.9332 16.8801 66.3689C16.9416 66.5403 17.0036 66.712 17.0632 66.8849L17.1477 67.1224C17.2444 67.3948 17.343 67.6732 17.4338 67.9557V28.0507C17.2473 28.2142 17.0637 28.382 16.884 28.5549C16.9035 28.5688 16.9226 28.5828 16.928 28.6158C16.9963 31.561 17.0608 34.5916 16.0447 37.4186C15.78 38.1398 15.446 38.8549 15.0144 39.5004C14.989 39.5345 14.9568 39.552 14.9236 39.556C14.8449 39.5654 14.7619 39.4998 14.759 39.4047C14.9939 36.5308 15.3684 33.6688 15.8659 30.8217C15.905 30.5939 15.9441 30.3691 15.9851 30.1448C16.0378 29.8531 16.0935 29.5619 16.1535 29.2644C15.8894 29.5311 15.634 29.8038 15.386 30.0826C14.9787 30.5402 14.5915 31.0142 14.2199 31.5054L14.0925 31.6782C14.1198 31.7419 14.133 31.8248 14.1267 31.8938C14.1277 32.0256 14.1277 32.155 14.1267 32.2839L14.1262 32.375L14.1242 32.507C14.1223 32.6359 14.1184 32.7655 14.113 32.8982C14.0832 33.5824 14.0002 34.2579 13.8816 34.9221C13.6579 36.2314 13.2756 37.5148 12.7483 38.7528L12.6491 38.9758C12.593 39.1003 12.5354 39.2245 12.4768 39.3481C12.4431 39.42 12.4084 39.4917 12.3733 39.5632C12.1697 39.9777 11.9499 40.3859 11.7102 40.7849C11.6565 40.8783 11.4948 40.8358 11.4958 40.7336L11.4641 40.2972C11.3552 38.8312 11.2473 37.3687 11.4231 35.9037C11.5544 34.8807 11.7527 33.8473 12.3733 32.9851C12.7556 32.4663 13.2546 32.0311 13.7776 31.6429C14.5114 30.6271 15.3425 29.6809 16.2531 28.807C16.2522 28.7999 16.2517 28.7959 16.2522 28.7921C16.2531 28.787 16.2566 28.7822 16.2649 28.7712C14.302 29.6238 12.0481 30.0465 9.93137 29.921C9.84495 29.9177 9.80735 29.7877 9.88596 29.7413C11.613 28.2634 14.238 27.5784 16.4231 28.3556C16.4377 28.3452 16.4573 28.3418 16.4778 28.3422C16.5002 28.3425 16.5241 28.3478 16.5432 28.3538C16.5906 28.3292 16.6267 28.3406 16.6628 28.3518L16.6833 28.3501L16.7014 28.3502L16.7229 28.3508C16.7444 28.3517 16.7658 28.3525 16.7829 28.35C16.8801 28.2526 16.9792 28.1565 17.0803 28.0619L17.1589 27.9886L17.2507 27.9041C17.3113 27.8491 17.3723 27.7946 17.4338 27.7405V26.6871C17.0544 26.6882 16.6745 26.6722 16.2961 26.6411C16.1018 26.6251 15.9074 26.6052 15.7141 26.5817C14.5212 26.4297 13.3269 26.1589 12.2102 25.7233C11.6042 25.4789 11.0437 25.1934 10.5061 24.8363C10.4284 24.7805 10.4607 24.6566 10.5613 24.6407C12.8733 24.243 15.2741 24.5193 17.4338 25.4048V22.135C17.3576 22.1733 17.2815 22.2108 17.2043 22.2474C14.6428 23.48 11.7419 23.9844 8.90354 23.658C8.8425 23.6519 8.80002 23.6121 8.7844 23.5647C8.76829 23.5171 8.77903 23.4618 8.82395 23.4254C9.44944 22.9575 10.1072 22.5747 10.823 22.2384C12.1433 21.6364 13.5681 21.2285 14.9992 20.9642C15.4729 20.8794 15.9504 20.8129 16.4299 20.7678C16.7639 20.7363 17.0989 20.7152 17.4338 20.7056V19.7782C16.9958 19.4543 16.5725 19.1139 16.1716 18.755C16.1511 18.7529 16.1247 18.7555 16.0989 18.7579L16.0588 18.7611C16.0471 18.7617 16.0364 18.7618 16.0266 18.7609C16.0051 18.7688 15.9836 18.7767 15.9602 18.7795C15.9367 18.7823 15.9114 18.7799 15.8811 18.7666C15.8386 18.7827 15.7751 18.7968 15.7361 18.7725C13.1482 19.8594 9.92942 19.209 7.7429 17.5397C7.64475 17.489 7.68137 17.3293 7.78586 17.3195C10.3352 17.0248 13.0876 17.3833 15.5168 18.2809C15.5095 18.2717 15.5051 18.2664 15.5027 18.2617L15.5007 18.2565C15.4992 18.252 15.4997 18.2471 15.5007 18.2384C14.3406 17.244 13.2727 16.1567 12.3171 14.9786C11.6584 14.545 11.0266 14.0527 10.5295 13.4515C9.72092 12.4517 9.41184 11.2162 9.18381 9.98889C8.87229 8.22852 8.90452 6.45203 8.93674 4.6709L8.94553 4.14709C8.94016 4.06848 9.01584 4.01465 9.09055 4.01416C9.13303 4.01392 9.17502 4.03101 9.2009 4.07068C9.72288 4.83765 10.1794 5.63879 10.593 6.45618C11.3132 7.91675 11.862 9.44177 12.2209 11.0088C12.4094 11.8035 12.5549 12.6143 12.6374 13.4391C12.6784 13.8514 12.7014 14.2416 12.7219 14.652C12.7341 14.7349 12.7239 14.8359 12.6955 14.9147L12.8611 15.1151C13.6369 16.03 14.4592 16.8884 15.3489 17.6924C15.2805 17.4297 15.2156 17.1709 15.1526 16.913C15.0642 16.5533 14.9797 16.1951 14.8962 15.8301C14.1028 12.4229 13.4568 8.98975 12.9782 5.53259C12.9773 5.4917 12.9885 5.45471 13.008 5.42419C13.0329 5.38477 13.0715 5.3562 13.114 5.34436C13.1706 5.32861 13.2336 5.34241 13.281 5.39966C13.8454 6.15051 14.2981 6.99219 14.6667 7.84583C16.0857 11.1934 16.2121 14.8601 16.3288 18.4238C16.3249 18.4642 16.3025 18.4824 16.28 18.5005C16.5154 18.7028 16.7546 18.8982 16.9983 19.0881C17.1032 19.1702 17.2092 19.2511 17.3156 19.3313L17.4338 19.4197V16.748C17.4338 12.8507 17.1179 10.0067 16.4861 8.21594C15.8537 6.31995 14.5901 5.05603 12.6941 4.42395C10.9031 3.68665 8.2175 3.26538 4.63596 3.16003V0C8.53342 0.105347 12.6413 0.210693 16.9602 0.31604C21.2785 0.31604 25.5447 0.368652 29.758 0.473999H41.4499H50.4558H63.7278C68.7839 0.368652 73.2605 0.210693 77.1579 0ZM32.6189 9.97058C32.6228 9.97095 32.6267 9.97131 32.6306 9.97168C33.0105 10.0056 33.3948 9.99268 33.7546 9.97778C34.5012 9.92639 35.2302 9.80273 35.9197 9.58118C37.2004 9.17627 38.3894 8.45642 39.3362 7.50232C38.4211 7.66724 37.5061 7.83203 36.6042 8.03015C36.2116 8.11633 35.8215 8.20874 35.4353 8.31018C34.5061 8.54956 33.5969 8.87219 32.7561 9.32373C32.7073 9.52991 32.6618 9.74548 32.6189 9.97058ZM32.1281 68.3173V69.604C33.6404 68.9994 35.0393 68.0171 36.3288 66.9753C35.8254 67.1168 35.3239 67.2656 34.8259 67.4199C34.2717 67.5914 33.7214 67.7698 33.177 67.9526C32.8962 68.0469 32.6169 68.1422 32.3391 68.2384L32.1281 68.3173ZM32.1281 50.6791C33.0989 48.9543 33.9958 47.218 34.7751 45.4407C34.6828 45.501 34.6072 45.4847 34.5476 45.3921C33.3674 43.4999 32.5881 41.2131 32.1496 38.9993L32.1281 38.8893V50.6791ZM32.1281 36.9415C32.1604 37.2706 32.2009 37.5983 32.2492 37.9241C32.3059 38.307 32.3738 38.6873 32.4529 39.064C32.9372 41.2477 33.782 43.2283 34.8323 45.1727L34.862 45.2191C34.8781 45.1426 34.9245 45.1124 34.9406 45.0359C35.3225 40.8392 33.8113 36.7979 32.1281 32.9998V36.9415ZM32.1281 57.3298C33.3391 56.338 34.3557 55.0536 35.2595 53.7452C34.1897 54.4165 33.1438 55.1254 32.1281 55.8439V57.3298ZM17.4338 85.6332V85.1572C16.343 85.3177 15.2468 85.4208 14.154 85.4647C14.0173 85.4554 14.0066 85.2157 14.1438 85.225C15.2575 85.1729 16.3576 85.048 17.4338 84.8661V84.4357C17.1618 84.4169 16.8855 84.3938 16.6203 84.3549C15.2492 84.4348 13.9128 84.8879 12.7805 85.7175C14.2619 86.2042 15.927 86.118 17.4338 85.6332ZM17.4338 83.9025V83.5333L17.0246 83.2451C17.031 83.2784 17.0432 83.3452 17.0818 83.3726L17.0832 83.3782C17.0954 83.4448 17.114 83.5413 17.1574 83.6002C17.1638 83.6337 17.1701 83.667 17.2151 83.7278L17.2336 83.8279C17.299 83.8545 17.3655 83.879 17.4338 83.9025ZM17.4338 80.6111V80.2637L17.3088 80.2042C17.2483 80.1757 17.1872 80.1477 17.1257 80.1205C17.2278 80.2795 17.3308 80.4449 17.4338 80.6111ZM17.4338 79.9712V78.6337L17.3357 78.553C17.2424 78.4761 17.1501 78.3997 17.0588 78.3228L16.9074 78.194C16.7068 78.0204 16.5129 77.8411 16.3313 77.6438L16.2282 77.5366C16.0847 77.3881 15.9304 77.228 15.8225 77.0819L16.0202 77.5686L16.032 77.5992C16.1281 77.8384 16.2239 78.077 16.3225 78.3141C16.3987 78.4961 16.4763 78.6771 16.5569 78.8567C16.6408 79.0446 16.7287 79.2308 16.821 79.4149C16.8742 79.5214 16.9294 79.6271 16.9865 79.7319C16.9924 79.7654 17.0315 79.7927 17.0315 79.7927L17.4338 79.9712ZM17.4338 78.4094V78.3137C17.3845 78.1982 17.3332 78.0833 17.281 77.9684C17.1526 77.6875 17.0158 77.4082 16.8791 77.1289C16.8669 77.0621 16.926 77.0167 16.9709 77.0774C17.0456 77.2153 17.1179 77.3538 17.1892 77.4933C17.2595 77.6312 17.3288 77.7703 17.3991 77.9108L17.4338 77.9805V76.7113C16.6633 75.8131 15.7434 75.0664 14.6828 74.5652C14.7453 74.6852 14.8059 74.8054 14.865 74.9264C14.9621 75.125 15.0554 75.3256 15.1477 75.5297L15.2239 75.6993L15.2903 75.8501L15.4089 76.1226L15.448 76.1499C15.6052 76.375 15.7771 76.5891 15.9524 76.7985L16.0696 76.9375L16.1643 77.0486L16.2312 77.127C16.3205 77.2318 16.4094 77.3362 16.4968 77.4408C16.782 77.7783 17.0959 78.1105 17.4338 78.4094ZM17.4211 96.3932C17.0178 95.3384 16.4372 94.3689 15.657 93.5637C15.7248 94.1277 15.7595 94.6857 15.7883 95.2771L15.8152 95.3164C15.9138 95.7023 16.049 96.0771 16.1823 96.4467L16.1882 96.4613C16.2405 96.6062 16.2927 96.7502 16.3425 96.8939C16.4094 97.0818 16.4822 97.2708 16.5613 97.4583C16.6682 97.7118 16.7868 97.9625 16.9182 98.2042C16.9104 97.929 16.8918 97.6519 16.8689 97.3739C16.8513 97.1617 16.8308 96.9491 16.8103 96.7365C16.822 96.6697 16.8933 96.6479 16.9143 96.7207C16.9573 97.0302 16.989 97.3376 17.0212 97.652L17.0271 97.7069C17.0486 97.9137 17.0705 98.1238 17.0964 98.3397C17.1242 98.3053 17.1511 98.2709 17.1775 98.2362C17.2444 98.1492 17.3073 98.061 17.3655 97.9705C17.3913 97.467 17.4099 96.9413 17.4211 96.3932ZM17.3445 98.3372C17.2849 98.427 17.2204 98.5118 17.1526 98.5912C17.1609 98.7196 17.1726 98.8453 17.1858 98.9701C17.1955 99.0621 17.2063 99.1537 17.217 99.2454V99.249V99.2527C17.2287 99.3588 17.24 99.4648 17.2502 99.572L17.2732 99.3167C17.3005 99.0006 17.3239 98.6741 17.3445 98.3372ZM16.9988 101.519C16.9963 101.423 16.9953 101.329 16.9953 101.234C16.9948 101.102 16.9939 100.97 16.9856 100.837C16.9978 100.77 16.9768 100.698 16.9831 100.664C16.9211 100.604 16.8606 100.542 16.8005 100.48L16.6784 100.351L16.6091 100.277L16.4856 100.144C16.4079 100.06 16.3303 99.9763 16.2517 99.8933C16.1653 99.802 16.0779 99.7117 15.9875 99.6233C16.0793 100.054 16.1648 100.517 16.2566 100.948C16.4685 101.218 16.7165 101.464 16.9763 101.648L16.9988 101.519ZM16.925 101.924C16.7195 101.796 16.5364 101.665 16.363 101.484C16.4001 101.632 16.4372 101.78 16.4758 101.929C16.5041 102.039 16.5334 102.15 16.5632 102.26C16.614 102.446 16.6677 102.633 16.7263 102.821C16.7981 102.539 16.8645 102.24 16.925 101.924ZM16.0168 104.736C14.4201 104.47 12.8469 104.083 11.3249 103.579C11.1999 103.522 11.2746 103.294 11.3996 103.351C12.8362 103.816 14.2966 104.147 15.7424 104.373C15.6594 104.31 15.5691 104.245 15.4782 104.18L15.4587 104.167L15.4392 104.153L15.3181 104.066C15.2688 104.03 15.2209 103.995 15.175 103.96C14.8 103.79 14.3928 103.613 14.0241 103.409C12.7121 103.001 11.302 102.954 9.95041 103.332C11.5896 104.65 13.9099 105.11 15.9719 104.817L16.0168 104.736ZM17.4338 71.9952V71.2111C17.2009 71.1263 16.966 71.0461 16.7287 70.9714C16.5256 70.9073 16.32 70.8473 16.1125 70.792C15.9734 70.7549 15.8332 70.7198 15.6916 70.6873C15.4084 70.6233 15.1228 70.566 14.8366 70.5087L14.5642 70.4539C14.3962 70.4198 14.2287 70.385 14.0617 70.3481C13.7444 70.278 13.4304 70.2003 13.1233 70.1058C12.9255 70.045 12.7302 69.9772 12.5388 69.9C13.9065 71.076 15.6321 71.8027 17.4338 71.9952ZM17.4338 70.0382V68.7184L17.426 68.6876C17.3567 68.4458 17.2805 68.207 17.1999 67.969C17.1169 67.723 17.03 67.4778 16.9421 67.2307C16.8889 67.0812 16.8357 66.9309 16.7829 66.7793C16.6994 66.5531 16.6189 66.3257 16.5432 66.0961C16.4319 65.7601 16.3313 65.4196 16.2478 65.0714C16.2263 64.9651 16.2068 64.8597 16.1892 64.7543C16.1526 64.53 16.1242 64.3052 16.1003 64.0695C16.01 66.1283 16.1882 68.2216 17.3518 69.9393C17.3781 69.9728 17.4055 70.0056 17.4338 70.0382ZM17.4338 25.6281C15.3645 24.7988 13.0974 24.5037 10.8806 24.8114C12.7488 25.9783 15.0876 26.4254 17.2673 26.405L17.4338 26.4006V26.1903L17.2263 26.1246L16.9675 26.0417C16.6653 25.9445 16.365 25.8478 16.0661 25.7617C15.0398 25.4647 14.0276 25.3691 12.9851 25.2955C12.8982 25.2921 12.9138 25.1708 13.0002 25.1742C14.0158 25.1842 15.0198 25.23 16.0105 25.5157C16.2112 25.5715 16.4089 25.6337 16.6052 25.6987L16.8679 25.7877L17.1057 25.8699L17.1452 25.8838L17.4338 25.9834V25.6281ZM17.4338 21.8605V21.4456C17.196 21.538 16.9602 21.6349 16.7248 21.7318L16.7204 21.7336L16.716 21.7355C16.2922 21.9097 15.8684 22.084 15.4294 22.2323C14.2517 22.6445 13.0417 22.7678 11.8147 22.8485C11.739 22.8557 11.7043 22.7808 11.7312 22.7354C11.7346 22.7301 11.7385 22.7252 11.7434 22.7208C11.7478 22.7168 11.7531 22.7133 11.759 22.7103C11.7673 22.7065 11.7771 22.704 11.7883 22.7029C13.0437 22.5435 14.26 22.3596 15.4802 21.9312C15.7556 21.8348 16.0324 21.7307 16.3098 21.6244L16.5515 21.5316C16.844 21.4191 17.1379 21.306 17.4338 21.1991V21.0598C17.2522 21.0614 17.0705 21.067 16.8884 21.0726C14.2531 21.1953 11.4563 21.8939 9.27756 23.4303C12.0857 23.6611 14.9143 23.1005 17.4338 21.8605ZM38.2024 107.501C39.2678 106.313 40.0593 104.907 40.8513 103.5C41.3567 102.602 41.862 101.704 42.4392 100.862C41.2839 101.803 40.2781 102.914 39.4226 104.138C38.7073 105.145 38.1472 106.22 37.6799 107.355L37.8493 107.405C38.2365 106.677 38.6701 105.974 39.1496 105.296C39.1745 105.251 39.2448 105.289 39.2195 105.335C39.1106 105.508 39.0056 105.685 38.9045 105.865L38.8152 106.026C38.7698 106.109 38.7253 106.192 38.6814 106.276C38.4763 106.67 38.2864 107.073 38.1062 107.475L38.2024 107.501ZM34.6013 105.622L34.6765 105.694C34.7209 105.736 34.7658 105.777 34.8117 105.817C35.2063 105.362 35.4997 104.865 35.7678 104.312C35.9485 103.943 36.1399 103.581 36.3376 103.22C36.4192 103.071 36.5017 102.923 36.5852 102.774L36.8137 102.368L36.8606 102.286C37.0285 101.989 37.1975 101.69 37.364 101.387C36.5071 102.204 35.8445 103.191 35.2971 104.239C35.2199 104.389 35.1438 104.539 35.0681 104.69L34.7844 105.258L34.6013 105.622ZM64.5271 22.625C64.2815 23.631 63.9773 24.6179 63.4651 25.5245C63.4387 24.3922 63.4719 23.2789 63.8503 22.2256C64.1902 21.2888 64.7463 20.4866 65.3376 19.7346C65.071 20.365 64.9016 21.0791 64.7351 21.7815C64.6677 22.0668 64.6003 22.3501 64.5271 22.625ZM69.115 22.6987C68.7346 21.8645 68.0901 21.1625 67.4695 20.4862L67.303 20.3048C66.799 19.7415 66.3337 19.0616 66.0613 18.3535C66.4826 18.9288 67.1125 19.3906 67.6594 19.8644C68.4426 20.6084 69.0422 21.6288 69.115 22.6987ZM65.2107 15.6241C64.906 16.2233 64.4787 16.7571 63.9929 17.272C63.8694 17.4064 63.7439 17.54 63.6179 17.6741C63.0534 18.2751 62.4831 18.8823 62.0573 19.5793C62.1965 18.4227 62.5945 17.3112 63.2956 16.3491C63.9968 15.387 64.9573 14.6638 66.0012 14.1224C65.7932 14.4427 65.6184 14.7987 65.4421 15.1578L65.4363 15.171C65.362 15.3224 65.2878 15.4742 65.2107 15.6241ZM67.927 16.5273L70.031 19.3773L69.7981 19.2676C68.7585 18.78 67.7351 18.2998 67.1628 17.2494C66.6657 16.3525 66.6599 15.3557 66.8537 14.385C66.9973 15.1676 67.4699 15.9017 67.927 16.5273ZM52.1384 11.7377C53.1799 11.7469 54.1906 11.5352 55.1897 11.2626C56.1448 11.0232 57.1535 10.6732 58.1111 10.572C57.1662 10.4187 56.1955 10.3208 55.2112 10.4773C54.1062 10.6561 53.1164 11.1665 52.1384 11.7377ZM58.5637 12.5676L58.4851 12.8019C58.1941 13.6724 57.8923 14.576 57.3469 15.3124C58.2478 14.7302 58.8503 13.7118 59.1218 12.6661C59.2712 11.9581 59.3703 11.1837 59.6697 10.5363C59.1823 11.1177 58.8127 11.8538 58.5637 12.5676ZM59.614 8.20276C60.3 8.37854 60.9739 8.49365 61.6457 8.47034C62.2185 8.45288 62.7961 8.39661 63.342 8.43445C62.363 7.78345 61.2654 7.29309 60.0837 7.14575C58.9026 6.99841 57.737 7.18835 56.6579 7.62695C57.656 7.66956 58.6408 7.96655 59.614 8.20276ZM60.6965 14.505L62.1711 11.2842C62.4968 10.5814 62.9104 9.81201 63.5256 9.30786C62.5823 9.60803 61.7131 10.0961 61.1692 10.9651C60.5271 11.9752 60.6028 13.1039 60.6794 14.2496L60.6965 14.505ZM32.9236 94.4189C33.0534 93.6738 33.2424 92.9305 33.5012 92.2128C33.1448 94.0043 32.9411 95.8121 32.9397 97.6144C32.9338 97.5731 32.9275 97.5336 32.9206 97.4951L32.9006 97.387C32.8908 97.3353 32.8816 97.2852 32.8738 97.235C32.8669 97.1931 32.8611 97.1512 32.8567 97.1086C32.7444 96.2158 32.7746 95.3156 32.9236 94.4189ZM35.9865 97.636C36.9509 96.5416 38.0525 95.5566 39.2214 94.6556C39.0881 94.8107 38.9592 94.9677 38.8332 95.1263C38.7317 95.2544 38.6321 95.3834 38.5334 95.5132L38.3576 95.748C38.1946 95.9674 38.0339 96.1884 37.8733 96.4095L37.8689 96.4158L37.74 96.593C37.6272 96.749 37.5134 96.9052 37.3982 97.0607L37.2151 97.3051C37.1472 97.3947 37.0783 97.4841 37.009 97.5732C36.2522 98.5452 35.3469 99.3839 34.4314 100.199L34.9529 99.5635L35.3244 99.1082C35.6203 98.7455 35.9157 98.3828 36.2175 98.0175C36.2551 97.9718 36.1745 97.9226 36.1369 97.9683C35.4363 98.7429 34.7361 99.5176 34.0598 100.281L34.4074 99.6949C34.8684 98.9716 35.3991 98.2737 35.9865 97.636ZM49.3982 100.023C48.6682 100.246 47.9597 100.54 47.2854 100.883C46.4787 101.301 45.74 101.816 45.0925 102.441C45.0241 102.503 44.9636 102.569 44.8996 102.639L44.8967 102.642L44.842 102.702L44.7912 102.755L44.737 102.811C46.1809 101.732 47.7502 100.811 49.3982 100.023ZM50.8703 106.066C49.4485 105.67 47.9997 105.379 46.5456 105.262C45.6833 105.175 44.8064 105.168 43.9514 105.232L43.2737 105.306C44.2903 105.389 45.3303 105.486 46.3698 105.582C46.4289 105.585 46.4382 105.679 46.3791 105.676C45.4323 105.631 44.509 105.599 43.5622 105.554C44.7634 105.798 45.9773 106.02 47.2092 106.044C47.6936 106.053 48.1731 106.046 48.6511 106.038C49.3889 106.027 50.1242 106.016 50.8703 106.066ZM9.99485 11.9893C9.39719 10.541 9.21018 8.90955 9.1804 7.3551C9.14719 6.45361 9.17551 5.55823 9.22581 4.64478C10.7219 7.02026 11.7824 9.61743 12.2463 12.3994C12.3098 12.7937 12.3733 13.188 12.4148 13.6003C12.426 13.6934 12.4367 13.7914 12.4475 13.8894C12.4582 13.9875 12.469 14.0856 12.4802 14.1786C12.4792 14.1887 12.4782 14.2104 12.4778 14.2401L12.4782 14.3492L12.4822 14.4581C12.4851 14.5146 12.49 14.5737 12.4968 14.6293C11.9651 13.9634 11.4553 13.2793 10.9704 12.5569C10.8435 12.3809 10.5739 12.5986 10.7009 12.7748C10.7483 12.8473 10.7971 12.9199 10.8464 12.9926C10.9211 13.1018 10.9973 13.2112 11.0749 13.3201C11.24 13.5519 11.4094 13.7817 11.5744 14.0055L11.6238 14.0719C10.9157 13.5109 10.343 12.8408 9.99485 11.9893ZM13.7448 8.38586L13.5764 7.28711L13.4079 6.18823C15.1394 8.89355 15.7219 12.1367 15.9406 15.3024C15.9978 16.2 16.0368 17.1121 16.0749 18.0115L16.0896 18.3385L16.071 18.3171C16.0656 18.3112 16.0598 18.3057 16.0539 18.3014C16.0471 18.2961 16.0398 18.2926 16.0324 18.2919C15.8264 15.8215 15.4548 13.355 14.9138 10.9326C14.9016 10.8497 14.7746 10.8778 14.7868 10.9607C15.24 13.2313 15.5461 15.5281 15.7068 17.8304C14.928 14.6902 14.2517 11.5601 13.7448 8.38586ZM8.15403 17.5607C9.39915 17.5022 10.6565 17.5266 11.8977 17.7126C13.0573 17.8905 14.1838 18.1876 15.28 18.5836C14.7199 18.609 14.1638 18.5939 13.6096 18.5585C12.7488 18.4923 11.8982 18.3251 11.0515 18.1174C10.99 18.1113 10.9616 18.1901 11.0227 18.1963C12.3318 18.5321 13.7346 18.7548 15.1145 18.7916C12.7614 19.3918 10.1443 18.9244 8.15403 17.5607ZM11.5417 38.0764C11.4944 36.7928 11.5735 35.4384 11.9997 34.2161C12.2478 33.4976 12.6892 32.9185 13.2473 32.4229C13.0647 32.7021 12.8733 32.993 12.696 33.2841L12.6281 33.3958L12.5461 33.5355C12.4494 33.6866 12.6819 33.8539 12.7785 33.7028C13.1452 33.0845 13.5339 32.4967 13.9421 31.9229C13.9319 32.0773 13.9441 32.2623 13.9494 32.2954L13.9358 32.5352C13.9314 32.6167 13.927 32.6981 13.9216 32.7754C13.907 33.1176 13.8723 33.4457 13.8381 33.7738C13.5842 36.0902 12.8288 38.2815 11.7043 40.3102C11.655 39.8683 11.612 39.4312 11.5823 38.9944C11.5617 38.6887 11.5476 38.3832 11.5417 38.0764ZM15.1482 38.1716L15.1711 37.9312L15.2595 37.0156C15.531 34.3737 15.9446 31.7605 16.4421 29.134C16.4157 31.0408 16.2693 32.9495 16.0002 34.8435C15.9939 34.9124 16.0998 34.9297 16.1062 34.8607C16.4411 32.8375 16.6335 30.7856 16.6897 28.7384C16.7063 28.7357 16.7204 28.7166 16.7346 28.6973C16.7448 29.5281 16.758 30.3754 16.7517 31.2087C16.7175 33.8302 16.3864 36.5323 15.0832 38.844L15.1482 38.1716ZM13.3054 29.407C12.2903 29.6178 11.2541 29.6959 10.2243 29.7051C11.803 28.4883 13.9406 27.9819 15.9094 28.3685C14.7727 28.4625 13.6257 28.7111 12.5613 29.0485C12.511 29.0564 12.5383 29.12 12.5886 29.1121C12.8591 29.0294 13.1306 28.9519 13.4031 28.8826C13.5154 28.854 13.6281 28.8268 13.7409 28.8011L13.8371 28.7798L13.9543 28.7548C14.1946 28.7048 14.4358 28.6626 14.6784 28.6302C15.134 28.5756 15.592 28.5374 16.0554 28.5325C15.1697 28.9097 14.2536 29.2068 13.3054 29.407ZM14.3293 62.3896C14.1687 63.8888 14.4284 65.413 15.0481 66.7792L15.0583 66.7981L15.0715 66.8164L15.0788 66.8252C15.0891 66.8387 15.0998 66.8525 15.1062 66.8678C15.0451 65.3518 14.7527 63.842 14.3293 62.3896ZM13.8386 68.2434C13.0027 67.9819 12.1291 67.813 11.2536 67.8165C12.1106 68.126 12.9211 68.5511 13.7688 68.8837C14.2199 69.0668 14.6799 69.2267 15.1682 69.3171C15.3371 69.3516 15.5085 69.3739 15.6804 69.3883C15.9001 69.4066 16.1213 69.4119 16.3406 69.412C15.5486 68.9406 14.7448 68.5314 13.8386 68.2434ZM11.258 60.6333C11.5178 62.2908 12.2536 63.8344 13.3821 65.0723C13.2517 64.5824 13.0666 64.1128 12.8523 63.6541C12.6931 63.3132 12.5178 62.9784 12.3362 62.6456C12.2351 62.4598 12.1321 62.2748 12.029 62.0897C11.8884 61.8365 11.7478 61.5834 11.6115 61.3284C11.489 61.0985 11.3698 60.8672 11.258 60.6333ZM10.9582 65.546C10.0427 65.4146 9.1135 65.3845 8.19797 65.5198C9.16038 65.6688 10.1296 65.8337 11.0798 66.045C12.0071 66.2474 13.175 66.6871 14.0857 66.2302C13.0671 65.9535 12.0163 65.691 10.9582 65.546ZM10.4411 86.8682C10.3196 86.605 10.1653 86.3358 10.0437 86.0726C9.99631 85.9606 9.80881 86.0648 9.86204 86.1434C9.89524 86.2057 9.92454 86.2673 9.95237 86.3287L9.99778 86.4281L10.0461 86.5341C10.073 86.5922 10.1008 86.6504 10.1321 86.7092L9.08811 86.3148C9.08616 85.7627 9.11057 85.2498 9.17405 84.7094C9.676 85.11 10.1072 85.5322 10.532 85.9878L10.5095 86.004C10.4983 86.0129 10.488 86.022 10.4812 86.0316C10.4704 86.0466 10.468 86.063 10.4812 86.0822C10.5373 86.3336 10.5222 86.6068 10.4411 86.8682ZM10.6394 86.5516C10.654 86.4044 10.6472 86.254 10.612 86.1057C10.9509 86.4769 11.2507 86.8756 11.5119 87.3019C11.4875 87.8147 11.365 88.3099 11.1438 88.7875C10.9782 88.2059 10.7468 87.6127 10.5095 87.0529C10.5744 86.8961 10.6218 86.7261 10.6394 86.5516ZM10.3508 89.8175L9.42307 89.3406C9.28147 88.6254 9.17209 87.9161 9.06907 87.1735C9.21653 87.3046 9.35422 87.4426 9.49192 87.5807L9.58713 87.6765C9.63987 87.7292 9.69309 87.7817 9.74729 87.8335C9.79856 87.8826 9.85081 87.931 9.90403 87.9786L9.91135 87.9856C10.2004 88.2424 10.4895 88.4991 10.8166 88.7288L10.9411 89.1649L10.9675 89.2041C11.0373 89.4489 11.0925 89.6909 11.1428 89.932L11.1687 90.0598L11.2131 90.2827L10.9367 90.1296L10.925 90.123L10.9192 90.1201L10.9089 90.1143C10.7336 90.0173 10.5578 89.92 10.3508 89.8175ZM10.9802 92.8962C10.8552 92.8392 10.6975 92.7765 10.573 92.7196C10.0803 91.7001 9.72483 90.6707 9.57151 89.6431C9.69602 89.7 9.81956 89.7651 9.9426 89.8303C10.0661 89.8956 10.1897 89.9609 10.3147 90.0179C10.4216 90.071 10.5207 90.1228 10.6194 90.1746L10.7033 90.2185L10.8093 90.2734L10.9333 90.3359C11.0583 90.3928 11.177 90.4832 11.3347 90.546L11.3791 90.8643C11.3459 90.8584 11.3401 90.8918 11.3401 90.8918C11.2956 90.9528 11.343 91.0647 11.4084 91.0764C11.4197 91.3889 11.4699 91.6738 11.4875 91.9528C11.2971 91.8842 11.1067 91.8154 10.9226 91.7134C10.6726 91.5995 10.4226 91.4857 10.2116 91.3444C10.1848 91.3051 10.1404 91.366 10.1672 91.4053C10.3781 91.5466 10.6218 91.6938 10.8327 91.8352C11.0442 91.9766 11.261 92.0846 11.4782 92.1925L11.5124 93.1298C11.4797 93.1239 11.4485 93.1096 11.4172 93.0953C11.386 93.0812 11.3547 93.0669 11.322 93.061C11.2605 93.033 11.2068 93.0062 11.1531 92.9796L11.0564 92.9319L10.9802 92.8962ZM8.62668 92.646C8.96262 92.8442 9.29856 93.0425 9.59592 93.2683C9.86643 93.4548 10.0984 93.6688 10.3034 93.8436L10.4636 94.0793C9.9968 93.8575 9.49729 93.6299 8.99778 93.4022C8.90598 93.2373 8.81711 93.0552 8.72971 92.8683L8.62668 92.646ZM5.31272 91.9128L4.85862 91.245C5.34934 91.3331 5.86692 91.4606 6.31907 91.5763C6.52707 91.924 6.74045 92.2383 6.95432 92.5525C6.70188 92.4586 6.44211 92.3634 6.18235 92.2682L5.93967 92.1793C5.72629 92.1012 5.51389 92.0233 5.30686 91.9462L5.31272 91.9128ZM6.72971 93.6156C7.1135 93.5466 7.50364 93.4443 7.86692 93.3026C8.24143 93.4734 8.58372 93.6382 8.8928 93.7972C8.91965 93.8365 8.98508 93.8483 9.0178 93.8541L9.66916 94.178C8.67502 94.0685 7.69358 93.8922 6.72971 93.6156ZM12.7834 90.9441C12.8303 91.4353 12.8445 91.9207 12.7873 92.4276L12.7097 92.4827C12.6491 92.5404 12.5964 92.5996 12.5437 92.6588C12.4905 92.7185 12.4372 92.7782 12.3757 92.8365L12.0095 93.1844C11.9944 93.1949 11.9802 93.2007 11.9685 93.2054C11.9489 93.2133 11.9353 93.2189 11.9319 93.2395C11.9338 93.1234 11.9333 93.0068 11.9299 92.8899C11.926 92.7449 11.9177 92.599 11.9055 92.4524C11.9006 92.392 11.8948 92.3314 11.8884 92.2708C11.8781 92.1755 11.8664 92.08 11.8532 91.984C12.1814 91.6636 12.4822 91.3038 12.7834 90.9441ZM12.157 90.2031C12.3034 89.9738 12.426 89.731 12.5056 89.4803C12.6301 89.9165 12.7156 90.3802 12.7688 90.838C12.6594 90.9872 12.5388 91.1344 12.4123 91.2782C12.3171 91.3865 12.2185 91.4929 12.1184 91.5967C12.0256 91.6929 11.9319 91.7867 11.8386 91.8779C11.8005 91.5262 11.7624 91.1746 11.6916 90.8169C11.8572 90.6279 12.0178 90.4216 12.157 90.2031ZM12.3962 89.1504C12.3 89.6848 11.9812 90.1448 11.6086 90.5262C11.529 90.0292 11.384 89.5203 11.2326 89.0448C11.4538 88.5673 11.6091 88.0779 11.6662 87.5709C11.9485 88.0698 12.2243 88.6022 12.3962 89.1504ZM11.1882 93.2439C11.3127 93.3008 11.405 93.3518 11.4973 93.4028C11.5017 93.5273 11.5012 93.651 11.4968 93.7761L11.4929 93.8745L11.4856 94.0084L11.4768 94.1445L11.4602 94.3618C11.3225 94.1593 11.1931 93.9507 11.0715 93.7395C10.9338 93.5001 10.8064 93.2573 10.6882 93.0162C10.7536 93.028 10.7805 93.0673 10.8459 93.079C10.9084 93.1074 10.9626 93.1344 11.0168 93.1614C11.0715 93.1885 11.1257 93.2155 11.1882 93.2439ZM12.5095 93.033C12.5544 92.972 12.6379 92.8835 12.7151 92.8285C12.6101 93.6027 12.3679 94.3868 12.0007 95.114L11.8938 94.9569C11.945 94.4833 11.9577 94.0372 11.9436 93.552C11.9822 93.5244 12.0129 93.4954 12.0432 93.4664C12.0735 93.4375 12.1042 93.4084 12.1428 93.3809L12.5095 93.033ZM11.634 101.669L11.9284 101.722C12.2556 101.781 12.5891 101.806 12.967 101.771L12.9997 101.776C13.0432 101.819 13.0945 101.863 13.1457 101.906L13.1487 101.909L13.1516 101.912L13.1545 101.914C13.2029 101.955 13.2512 101.996 13.2912 102.036C13.2878 102.053 13.2873 102.069 13.2883 102.083C13.2893 102.1 13.2927 102.115 13.2956 102.129C13.299 102.146 13.302 102.161 13.2995 102.175L13.2668 102.169L13.1985 102.181L13.1272 102.196C13.0832 102.205 13.0393 102.215 12.987 102.223C12.9187 102.227 12.8586 102.234 12.7986 102.24L12.7043 102.25L12.6091 102.258C12.2673 102.093 11.9372 101.862 11.634 101.669ZM15.675 103.809C15.6628 103.791 15.6491 103.78 15.635 103.772C15.6257 103.768 15.6164 103.765 15.6072 103.763L15.5827 103.758C15.5071 103.7 15.4328 103.645 15.3606 103.591C15.1501 103.435 14.9558 103.291 14.7834 103.131L14.8015 103.031C14.7805 102.958 14.7864 102.925 14.7927 102.892C14.7717 102.819 14.7898 102.719 14.802 102.652C14.7751 102.613 14.7868 102.546 14.7932 102.512L15.675 103.809ZM13.5642 102.395L14.6164 103.308C14.5241 103.257 14.426 103.24 14.301 103.183L13.945 103.001L13.5969 102.82C13.3235 102.677 13.0554 102.535 12.7878 102.394C12.8532 102.405 12.8918 102.378 12.9573 102.39C13.0554 102.407 13.1267 102.385 13.2248 102.403C13.2903 102.415 13.3293 102.387 13.3948 102.399L13.4602 102.411L13.5256 102.423L13.5642 102.395ZM13.5837 102.127L13.5793 102.122C13.553 102.083 13.5588 102.049 13.6037 101.988C13.5827 101.916 13.5681 101.81 13.5534 101.703C13.5178 101.525 13.5212 101.318 13.4856 101.14C13.4563 100.927 13.427 100.715 13.4299 100.509C13.7483 100.977 14.0876 101.449 14.4118 101.935C14.4958 102.061 14.5783 102.188 14.6594 102.316C14.6692 102.385 14.6648 102.452 14.656 102.517C14.6511 102.553 14.6448 102.588 14.6384 102.622L14.5964 102.856L14.572 102.99C14.2175 102.72 13.9006 102.424 13.5837 102.127ZM16.8967 98.5107C16.8908 98.5441 16.9236 98.55 16.9236 98.55C16.9319 99.0687 16.9724 99.5934 17.052 100.09L17.0461 100.124C17.0344 100.191 17.0549 100.263 17.0427 100.33C16.7043 99.959 16.3596 99.6212 16.0149 99.2834C16.0149 99.2834 16.0056 99.27 15.9992 99.2522C15.9948 99.2395 15.9914 99.2246 15.9939 99.2107C15.9255 98.7163 15.8938 98.2192 15.8752 97.7201C15.8576 97.2551 15.8513 96.7885 15.8376 96.3204C15.8996 96.5385 16.0212 96.8018 16.1164 97.0256C16.2868 97.4478 16.5085 97.8337 16.7365 98.2306L16.8967 98.5107ZM11.9524 101.588C11.7561 101.553 11.5866 101.557 11.3904 101.522C11.2712 101.432 11.1526 101.341 10.989 101.312C10.6916 101.086 10.427 100.866 10.136 100.607C10.2668 100.63 10.3908 100.644 10.5149 100.658L10.6677 100.675C10.7419 100.684 10.8171 100.695 10.8943 100.709C11.1369 100.724 11.4001 100.744 11.6477 100.779C11.7073 100.787 11.7658 100.796 11.823 100.806C11.8557 100.812 11.8943 100.785 11.8943 100.785C11.9714 100.857 12.0486 100.932 12.1252 101.007C12.2068 101.087 12.2878 101.169 12.3689 101.25C12.5261 101.407 12.6833 101.565 12.842 101.714C12.5476 101.661 12.2531 101.608 11.9524 101.588ZM9.02756 99.4424C9.18674 99.4709 9.34592 99.4995 9.50461 99.5334C9.56565 99.5465 9.6262 99.5603 9.68674 99.5752C9.75999 99.5933 9.83274 99.6128 9.905 99.6344C10.049 99.6731 10.1921 99.7163 10.3347 99.7626C10.4865 99.8119 10.6384 99.8645 10.7898 99.9183L11.0534 100.013C11.0862 100.019 11.1247 99.9913 11.1247 99.9913C11.2702 100.121 11.4099 100.284 11.5554 100.414C11.5525 100.43 11.5573 100.448 11.5627 100.466L11.5691 100.49C11.571 100.5 11.572 100.51 11.57 100.52L11.5969 100.559C11.3948 100.557 11.1657 100.516 10.9631 100.514L10.5412 100.485L10.5178 100.484C10.3523 100.472 10.1863 100.46 10.029 100.45C9.81174 100.237 9.5925 100.037 9.38352 99.8275C9.26047 99.7043 9.14084 99.5775 9.02756 99.4424ZM9.98264 99.5793C9.62864 99.4813 9.30149 99.4225 8.94114 99.3579C8.8884 99.2905 8.83372 99.2228 8.77854 99.1545C8.60422 98.9382 8.42551 98.7163 8.28782 98.4819C8.85032 98.5483 9.40061 98.6818 9.93284 98.9153L9.99827 98.927C10.0871 99.0103 10.1784 99.094 10.2707 99.1786C10.509 99.3975 10.7541 99.6224 10.9792 99.8618L10.4807 99.7206L9.98264 99.5793ZM8.1218 98.2795L8.06809 98.201C7.85422 97.8867 7.6467 97.5391 7.50999 97.1697C7.47483 97.1182 7.44651 97.0679 7.42112 97.0182C7.40598 96.9879 7.39182 96.9579 7.37864 96.928L7.33518 96.8279C8.15256 97.3541 8.8928 97.9353 9.62082 98.5834C9.4304 98.5146 9.20774 98.4402 9.01096 98.4049C8.71653 98.3519 8.42209 98.2991 8.1218 98.2795ZM7.30588 96.6157L7.24045 96.604C7.21946 96.5312 7.28489 96.5431 7.48118 96.5784C7.91282 96.6213 8.32004 96.798 8.7009 96.9353C8.71506 96.9379 8.7302 96.9423 8.74631 96.9476C8.7678 96.9548 8.79026 96.9637 8.81272 96.9727L8.81711 96.9745C8.8552 96.9895 8.8928 97.0043 8.92405 97.0099L9.0842 97.2455C9.10813 97.3016 9.14036 97.3591 9.17258 97.4166C9.20432 97.474 9.23606 97.5314 9.2595 97.5873C9.32737 97.772 9.42258 97.996 9.45188 98.2081C8.77707 97.6387 8.0637 97.0968 7.30588 96.6157ZM9.3884 97.3118C9.37131 97.2808 9.35422 97.2499 9.3386 97.2192C9.32639 97.1951 9.31467 97.171 9.30442 97.1472C9.40256 97.1648 9.52756 97.2217 9.61399 97.3062C10.0866 97.4945 10.5149 97.7439 10.9104 97.9873C11.1565 98.6866 11.3635 99.4136 11.4992 100.162C10.9289 99.5769 10.3196 99.0192 9.71018 98.4614L9.72825 98.3612L9.68723 98.1833C9.66916 98.1024 9.6511 98.0239 9.63254 97.9476L9.60276 97.8328L9.57688 97.7454C9.54954 97.6573 9.51829 97.5721 9.47971 97.489C9.46457 97.4532 9.44602 97.4169 9.426 97.3802L9.39133 97.3165L9.3884 97.3118ZM11.5744 99.2997C11.4729 98.9271 11.3596 98.5564 11.2463 98.1855C11.9656 98.6941 12.5896 99.3579 13.1242 100.144L13.1511 100.183C13.1535 100.356 13.1579 100.52 13.1623 100.685L13.1682 100.933L13.1731 101.187C13.2033 101.34 13.2053 101.512 13.2068 101.667L13.2082 101.745L13.196 101.812C12.9651 101.599 12.7439 101.378 12.5227 101.158C12.3 100.937 12.0769 100.715 11.844 100.5C11.7771 100.096 11.6823 99.697 11.5744 99.2997ZM7.55149 93.177C7.1887 93.3187 6.82541 93.4603 6.43528 93.5627C6.37571 93.5176 6.27756 93.5 6.20627 93.5216C5.60227 93.3097 5.01047 93.031 4.41868 92.7523L5.98166 92.5157C6.36204 92.6531 6.71018 92.7845 7.05198 92.9493C7.07834 92.9641 7.10276 92.9755 7.1262 92.9856L7.17698 93.0063C7.21653 93.022 7.25608 93.0377 7.30198 93.0632L7.32883 93.1025C7.3552 93.1417 7.42063 93.1536 7.45969 93.126C7.47581 93.1289 7.49045 93.1401 7.50559 93.1515C7.52073 93.1628 7.53538 93.1741 7.55149 93.177ZM4.26731 92.6561C3.46457 92.2361 2.67356 91.7491 1.96604 91.1738C2.86497 91.0593 3.8054 91.0903 4.69504 91.2156C4.76194 91.3137 4.82737 91.4203 4.89231 91.5269C4.95725 91.6334 5.02268 91.74 5.08957 91.8383C4.48606 91.6263 3.84934 91.4086 3.23948 91.2301C3.14133 91.2125 3.07883 91.3737 3.17698 91.3912C3.99778 91.7112 4.81858 92.031 5.67209 92.3567C5.17795 92.4749 4.72288 92.5654 4.26731 92.6561ZM7.36204 92.7291C7.12131 92.3756 6.88108 92.022 6.6345 91.7019C6.79172 91.7646 6.98215 91.8334 7.17844 91.8687C7.59202 92.0118 7.99338 92.2218 8.39475 92.4319L8.38303 92.4987C8.4719 92.7561 8.56077 93.0134 8.68821 93.2433C8.46506 93.1687 8.28098 93.0667 8.09055 92.9979L8.02512 92.9862C7.80198 92.9116 7.58518 92.8037 7.36204 92.7291ZM9.47727 87.3424C9.34934 87.2185 9.22434 87.0952 9.1052 86.973L9.10081 86.9034C9.09446 86.7787 9.08665 86.6373 9.05198 86.5153L10.0959 86.9097C10.1228 86.9489 10.1614 86.9214 10.1614 86.9214C10.1823 86.994 10.2356 87.0726 10.2566 87.1453C10.2292 87.1644 10.2209 87.1703 10.2165 87.1833L10.2131 87.1991L10.2116 87.2063C10.1609 87.3005 10.28 87.3909 10.3244 87.33C10.4939 87.7052 10.6301 88.0745 10.7336 88.438C10.6521 88.376 10.5705 88.314 10.4895 88.2507C10.4338 88.2075 10.3781 88.1637 10.323 88.1188L10.2502 88.0587L10.1389 87.9636L10.0261 87.8627L9.83567 87.6833C9.71457 87.5695 9.59446 87.4557 9.47727 87.3424ZM7.11741 69.8323L7.1218 69.8363C7.23166 69.9353 7.34153 70.0343 7.44358 70.1346C7.42747 69.8616 7.34543 69.6005 7.20432 69.3849C7.16526 69.3575 7.19211 69.3181 7.21848 69.2788C6.66038 69.0018 6.10862 68.7584 5.49729 68.5603C5.62864 69.0884 5.78586 69.577 5.98264 70.093L7.09836 70.0946C7.04563 70.0482 6.9968 70.0013 6.94944 69.9542L6.87131 69.876C6.79905 69.8036 6.72678 69.7311 6.6467 69.6602C6.56858 69.6055 6.70774 69.4419 6.79172 69.5299C6.89182 69.629 7.00022 69.7266 7.10862 69.8242L7.11301 69.8282L7.11741 69.8323ZM7.33518 69.3608C7.52122 69.6372 7.58274 69.9709 7.57249 70.2834C7.7717 70.4928 7.97239 70.7098 8.16672 70.932C8.38157 71.1772 8.58811 71.4288 8.77707 71.6837C8.81565 71.1589 8.75608 70.6522 8.59836 70.1636C8.20383 69.8566 7.78293 69.589 7.33518 69.3608ZM7.36106 72.8073L8.39719 72.927L8.49534 72.9375L8.59543 72.9492C8.75657 72.969 8.90598 72.991 9.0554 73.0129L9.36838 73.0588C9.176 72.7491 8.98362 72.4395 8.75901 72.1357L8.71995 72.1084L8.44993 71.7439C8.20579 71.681 7.97239 71.6027 7.74241 71.5186C7.60471 71.4681 7.46799 71.4156 7.33176 71.3632C6.96799 71.223 6.63059 71.0436 6.26682 70.9034C6.62473 71.5623 6.97678 72.1877 7.36106 72.8073ZM9.72678 75.5708L9.84885 75.576C9.92551 75.5791 10.0022 75.5823 10.0705 75.587C10.2073 75.5963 10.3117 75.6116 10.4485 75.621C10.4812 75.615 10.5154 75.6173 10.5495 75.6196C10.5837 75.6219 10.6179 75.6243 10.6506 75.6182L10.2888 74.7531C10.0476 74.7284 9.80637 74.7037 9.55881 74.6458C9.43528 74.6167 9.30344 74.5892 9.17161 74.5618C9.03977 74.5343 8.90793 74.5068 8.7844 74.4778C8.74534 74.4504 8.76584 74.3777 8.80491 74.405C9.05198 74.463 9.3259 74.4817 9.59983 74.5002C9.68186 74.5123 9.76291 74.5192 9.84348 74.5229C9.9675 74.5287 10.0901 74.527 10.2131 74.5254C10.0984 74.2704 9.95139 74.0214 9.8303 73.733C9.79709 73.7393 9.75901 73.7194 9.73215 73.6886C9.70676 73.6592 9.69163 73.6199 9.70139 73.5842C9.70139 73.5842 9.69553 73.5508 9.72825 73.5448L9.57493 73.2625C9.52024 73.2614 9.46799 73.2562 9.41819 73.2494C9.37913 73.244 9.34153 73.2377 9.30491 73.2314C9.2429 73.2211 9.18332 73.2111 9.12522 73.2072C8.88401 73.1825 8.67551 73.1519 8.4343 73.1273L8.32737 73.1185L8.18332 73.103L8.02073 73.0828C7.92405 73.0704 7.82737 73.0581 7.73118 73.0486C7.68967 73.0444 7.64817 73.0409 7.60666 73.0381C8.11155 73.9459 8.80686 74.7843 9.62668 75.5651L9.72678 75.5708ZM8.34202 76.2852C8.15647 76.2474 7.96799 76.2144 7.77952 76.1813L7.91575 76.3157L8.05002 76.446C8.16575 76.5569 8.28049 76.6631 8.3928 76.7587C8.94065 76.7958 9.4885 76.833 10.0036 76.8762L9.77024 76.712C9.51682 76.6207 9.22483 76.502 8.90549 76.4226C8.72336 76.3683 8.5344 76.3242 8.34202 76.2852ZM3.7595 76.1968L4.41965 76.6619L4.426 76.6952C5.00022 76.693 5.60715 76.6848 6.18137 76.6826L6.17112 76.6749C5.86399 76.4586 5.55588 76.2419 5.2429 75.9926C4.96848 76.0227 4.67112 76.057 4.37278 76.0988L4.13743 76.1333C4.01047 76.1528 3.88352 76.174 3.7595 76.1968ZM7.29954 77.0635C7.0095 77.324 6.6804 77.557 6.34543 77.7568C7.34495 77.6763 8.3259 77.4957 9.29416 77.2484L8.57102 77.1746C8.53831 77.1805 8.47288 77.1925 8.43381 77.1652C8.0886 77.1252 7.71018 77.0913 7.29954 77.0635ZM11.5964 74.5122C11.4719 74.0176 11.2878 73.5682 11.071 73.125C10.9157 73.5677 10.7605 74.0105 10.5666 74.4258C10.7712 74.8022 10.9431 75.1848 11.0823 75.5732C11.0759 75.5399 11.1086 75.5339 11.135 75.4945L11.3557 75.0398C11.3923 74.964 11.4206 74.8898 11.4489 74.8156C11.4778 74.7412 11.5066 74.6669 11.5437 74.5911L11.5964 74.5122ZM10.2956 71.8528C10.3225 72.3655 10.1858 72.9083 10.0041 73.3905C10.1936 73.6956 10.3508 74.0065 10.508 74.3174L10.5154 74.3317L10.6032 74.1403L10.6784 73.9697L10.7605 73.7739C10.8059 73.6627 10.8489 73.5507 10.8889 73.4385C10.9377 73.3024 10.9817 73.166 11.0198 73.0309C10.9436 72.8831 10.863 72.736 10.779 72.5912C10.6296 72.3347 10.468 72.0857 10.2956 71.8528ZM9.82395 73.1475C10.0383 72.6594 10.175 72.1166 10.0769 71.5825C9.89622 71.3513 9.69163 71.1335 9.47581 70.9269C9.26926 70.7289 9.05295 70.541 8.83762 70.3611C8.90354 70.6212 8.94211 70.8862 8.95823 71.1554C8.96555 71.2794 8.96848 71.4044 8.96653 71.5302C8.96555 71.5956 8.9636 71.6613 8.96067 71.7272C8.95823 71.7825 8.95481 71.8378 8.9509 71.8933C9.2595 72.2852 9.57444 72.7103 9.82395 73.1475ZM10.7326 75.8792C10.6286 75.8639 10.5241 75.8485 10.3874 75.8392C10.2502 75.83 10.1462 75.8146 10.009 75.8053C9.9968 75.8075 9.98557 75.8085 9.97532 75.8085C9.96409 75.8086 9.95334 75.8076 9.94309 75.8063L9.92405 75.8036C9.89817 75.7998 9.87229 75.796 9.83957 75.802C10.2077 76.1484 10.6081 76.4888 11.0354 76.7898C10.9416 76.4619 10.8532 76.1676 10.7326 75.8792ZM11.6706 74.9128C11.6174 74.9916 11.5705 75.1038 11.55 75.1765L11.3293 75.6313C11.3025 75.6708 11.2839 75.7086 11.2654 75.7466C11.2473 75.7844 11.2292 75.8223 11.2029 75.8617C11.3293 76.1708 11.4377 76.4669 11.532 76.772L11.5686 76.894C11.5974 76.9927 11.6247 77.0924 11.6511 77.1941L11.8064 77.3036C11.8938 76.4937 11.8445 75.6746 11.6706 74.9128ZM14.0652 83.5139L13.7712 83.568L13.9978 83.6169L14.0154 83.621C14.299 83.6836 14.5989 83.7498 14.8913 83.776C15.0158 83.7185 15.1076 83.6671 15.2322 83.6096C15.3244 83.5581 15.3835 83.5127 15.4753 83.4613L15.508 83.4553L15.5051 83.4448L15.4988 83.4312L15.4875 83.4135C15.4743 83.3922 15.4582 83.3667 15.4509 83.3278C15.4162 83.3125 15.3786 83.2979 15.3396 83.2833C15.2541 83.2517 15.1628 83.2212 15.0871 83.1877L15.0544 83.1937C14.7131 83.3601 14.3923 83.4536 14.0652 83.5139ZM17.1394 84.0522L15.8332 83.568L15.8069 83.6074L15.7414 83.6194L15.676 83.6315C15.6433 83.6376 15.6198 83.6505 15.5969 83.6633C15.5866 83.6692 15.5764 83.675 15.5652 83.6802C15.5515 83.6864 15.5364 83.6917 15.5188 83.6949C15.49 83.7003 15.4641 83.708 15.4397 83.7168C15.3821 83.7375 15.3323 83.7638 15.2629 83.7765C15.2302 83.7825 15.2073 83.7953 15.1843 83.8081C15.1614 83.821 15.1384 83.834 15.1057 83.84C15.6599 83.9105 16.2136 83.9812 16.8 84.0457C16.8581 84.0497 16.9094 84.0487 16.9568 84.0474L16.967 84.047C17.0281 84.0454 17.0827 84.0439 17.1394 84.0522ZM15.7512 83.307C16.154 83.4744 16.5569 83.6418 16.9861 83.7699L16.9616 83.6364L16.9187 83.4027C16.9001 83.3026 16.8816 83.2024 16.8303 83.1083C16.4338 82.8096 16.0256 82.5288 15.6228 82.2518L15.5437 82.1971C15.3752 82.0812 15.2082 81.9657 15.0437 81.8497C15.0617 81.9003 15.0818 81.9503 15.1037 82C15.1155 82.0273 15.1281 82.0546 15.1413 82.0818C15.1941 82.1931 15.2536 82.3032 15.3132 82.4132L15.3176 82.4205C15.365 82.4969 15.406 82.583 15.447 82.6692C15.489 82.7576 15.531 82.8461 15.5793 82.9244C15.6306 83.0186 15.6819 83.1127 15.7268 83.1735C15.718 83.2054 15.7141 83.2299 15.716 83.2495L15.718 83.2631C15.7199 83.2704 15.7229 83.277 15.7268 83.283C15.7326 83.2919 15.7409 83.2997 15.7512 83.307ZM13.4909 83.5161C13.6872 83.48 13.8445 83.4165 14.0407 83.3804C14.3288 83.2928 14.6233 83.2386 14.9172 83.1844L14.7556 83.1157L14.5344 83.0177C14.2571 82.8933 13.9787 82.7632 13.7033 82.6487C13.7033 82.6487 13.6765 82.6881 13.6438 82.6941C13.3498 82.7483 13.029 82.8419 12.7405 82.9294C12.6096 82.9536 12.4885 82.9845 12.3674 83.0154C12.2463 83.0463 12.1252 83.0771 11.9948 83.1013C12.1863 83.175 12.3669 83.2412 12.5471 83.3029C12.7097 83.3584 12.8718 83.4103 13.0412 83.4608C13.2048 83.4307 13.3479 83.4734 13.4909 83.5161ZM11.1965 82.2955C11.1277 82.304 11.0588 82.3137 10.9905 82.3243C10.8425 82.3473 10.695 82.3744 10.5476 82.4015C10.6946 82.4844 10.844 82.5581 10.9953 82.6276C11.156 82.7013 11.3191 82.77 11.4836 82.8395C11.6018 82.8893 11.7204 82.9393 11.8396 82.9918C12.1277 82.9043 12.4485 82.8108 12.7365 82.7231C12.8303 82.689 12.9328 82.6614 13.0359 82.6338L13.0403 82.6327C13.1452 82.6047 13.2502 82.5768 13.3454 82.542L13.3069 82.5146C13.3039 82.4982 13.2927 82.483 13.2815 82.4679C13.2698 82.4526 13.2585 82.4374 13.2556 82.4205C13.2195 82.4067 13.1833 82.3916 13.1467 82.3757L13.0471 82.3302L12.9797 82.2988C12.8869 82.2554 12.7942 82.212 12.7033 82.177C12.7033 82.177 12.677 82.2164 12.6443 82.2225C12.2395 82.2279 11.8352 82.2334 11.4363 82.2723C11.3557 82.278 11.2761 82.2859 11.1965 82.2955ZM10.7243 82.3005L10.9153 82.2679C11.1028 82.2373 11.2903 82.2113 11.4895 82.1935L11.9958 82.151L12.5217 82.1071C12.3259 82.011 12.1242 81.924 11.9231 81.8409C11.8205 81.7986 11.718 81.7573 11.6164 81.7164L11.6091 81.7135C11.4958 81.668 11.384 81.6229 11.2746 81.5774L11.2092 81.5894C10.6286 81.5582 10.0666 81.6272 9.51682 81.7629C9.72825 81.9337 9.97385 82.0784 10.2131 82.2194L10.3244 82.2849L10.4372 82.3528L10.7243 82.3005ZM9.21262 81.5774L9.29026 81.6321C9.57834 81.5446 9.87278 81.4904 10.1667 81.4362C10.2395 81.4229 10.3171 81.4132 10.3967 81.4062C10.5324 81.3944 10.6731 81.3903 10.8005 81.3885C9.89084 81.0383 8.99338 80.7549 8.0427 80.5503C8.09153 80.6016 8.14036 80.6527 8.19553 80.7028C8.23557 80.7388 8.27854 80.7742 8.32737 80.8086C8.58469 81.1062 8.90159 81.3585 9.21262 81.5774ZM7.87522 80.3741L7.94065 80.3621C8.81956 80.5453 9.67795 80.8014 10.51 81.0969C10.4538 80.9932 10.3777 80.8931 10.299 80.7992C10.2346 80.7228 10.1692 80.6504 10.1111 80.5836C10.0691 80.5393 10.0188 80.4965 9.96799 80.4536C9.91819 80.4114 9.86838 80.3691 9.82688 80.3253L9.59397 80.1611C9.52854 80.1732 9.42454 80.158 9.35911 80.1699C8.95432 80.1754 8.51096 80.1536 8.09202 80.2651C7.89573 80.3013 7.8303 80.3134 7.87522 80.3741ZM10.1418 80.2854L10.1506 80.293C10.1975 80.3329 10.2439 80.3728 10.2829 80.4139C10.4494 80.578 10.5774 80.7716 10.718 80.9851L10.823 81.1428L10.841 81.243C11.6076 81.5505 12.3742 81.858 13.1145 82.205C12.7239 81.5521 12.2737 80.9447 11.7976 80.3767C11.3415 80.2881 10.8532 80.2054 10.344 80.1957C10.2336 80.147 10.0969 80.1377 9.99875 80.1556C10.0412 80.2 10.0915 80.2427 10.1418 80.2854ZM12.1863 80.45C12.6731 81.0826 13.1599 81.7156 13.5559 82.3998C14.1404 82.6372 14.6985 82.9141 15.2834 83.1516L15.2712 83.0848C15.2077 82.924 15.1379 82.7297 15.0417 82.5748L14.9289 82.2925L14.7658 81.8894L14.6672 81.6429L14.6286 81.6156C13.8518 81.0684 13.0339 80.6667 12.1819 80.4441L12.1863 80.45ZM6.051 77.8109C6.3801 77.5779 6.67014 77.3174 6.96018 77.0569C6.92747 77.0629 6.88889 77.0355 6.85618 77.0416C6.82932 77.0809 6.76389 77.093 6.72532 77.0657L6.68625 77.0383C6.63108 77.0302 6.58665 77.0297 6.54172 77.0288C6.50217 77.028 6.46165 77.0269 6.41233 77.0197C6.0344 76.9857 5.66233 76.9852 5.25754 76.9907L3.87864 77.7623C4.53049 77.8148 5.18235 77.8673 5.822 77.8531C5.88157 77.8077 5.97971 77.7897 6.051 77.8109ZM1.02707 77.1484C1.89182 77.4379 2.80344 77.6151 3.70286 77.7257L3.72483 77.7124C4.11155 77.4716 4.49924 77.2302 4.91233 76.9508C4.27854 76.9478 3.66038 76.9418 3.04661 76.9349L2.23704 76.9257C2.17698 76.9368 2.15403 76.8761 2.16819 76.8234C2.17747 76.79 2.2009 76.7598 2.23899 76.7528C2.36545 76.7433 2.49338 76.7349 2.62229 76.7273C2.73166 76.7209 2.84202 76.7152 2.95286 76.7101C3.36448 76.6909 3.78098 76.6796 4.18479 76.6707C3.99045 76.5338 3.78977 76.3636 3.59592 76.2268C2.71897 76.4227 1.82786 76.7249 1.02707 77.1484ZM6.41819 76.559L6.62473 76.7045C6.74241 76.7001 6.86155 76.7041 6.98069 76.7081C7.09983 76.712 7.21897 76.7159 7.33616 76.7115L7.40159 76.6996C7.49192 76.6984 7.58323 76.7037 7.67795 76.7094C7.79514 76.7163 7.91721 76.7235 8.04758 76.7186C8.00901 76.6862 7.9719 76.6522 7.93528 76.6172C7.85422 76.5392 7.77659 76.4554 7.70139 76.3691C7.63303 76.2908 7.56614 76.2101 7.49924 76.1294L7.48704 76.0626C7.29954 76.0396 7.11204 76.0165 6.926 75.9983C6.66477 75.9729 6.40549 75.9569 6.15061 75.9636C5.95432 75.9996 5.75168 76.0024 5.58225 75.9991L5.69211 76.0685C5.81809 76.1486 5.94407 76.2324 6.07102 76.3186L6.2429 76.437L6.41819 76.559ZM6.2302 70.7031C6.59983 70.8766 7.00266 71.0441 7.40549 71.2115C7.58127 71.283 7.7551 71.3423 7.92795 71.3967C8.04221 71.4329 8.15647 71.4669 8.27024 71.501C8.04514 71.1973 7.78733 70.8995 7.49729 70.6079C7.47678 70.6807 7.33372 70.6381 7.34788 70.5319C7.34495 70.5177 7.34348 70.5095 7.34495 70.5017C7.34641 70.4913 7.35276 70.4817 7.36838 70.4591L7.35374 70.4408L7.34006 70.4254L7.31565 70.4005L7.28489 70.3712L7.28049 70.3672C7.2512 70.3396 7.2219 70.312 7.20041 70.2828C7.20041 70.2828 7.17405 70.3223 7.13499 70.2949L6.01926 70.2933C6.10911 70.4148 6.17258 70.5757 6.2302 70.7031ZM40.0852 41.5337C39.8459 42.2827 39.1389 42.8119 38.4646 43.188C37.8362 43.5338 37.1863 43.7952 36.4685 44.002C36.924 43.5391 37.4548 43.0924 37.9699 42.7223C38.5847 42.2535 39.3137 41.809 40.0852 41.5337ZM42.3874 57.7544C43.1404 57.5844 43.9685 57.2767 44.4094 56.6259C43.5915 56.6718 42.7668 56.8921 42.0442 57.168C41.446 57.3774 40.8103 57.6559 40.2429 57.9711C40.549 57.9729 40.8469 57.9626 41.1399 57.9393C41.5617 57.9059 41.9739 57.8453 42.3874 57.7544ZM37.7864 52.0994C37.634 54.3309 37.884 56.4695 38.342 58.6316L38.3576 58.6844C38.3767 58.6495 38.3996 58.6283 38.4226 58.6068C38.4446 58.5859 38.4665 58.5648 38.4846 58.531C40.0378 54.611 39.7292 50.3046 39.1882 46.1835C38.4226 48.0826 37.948 50.0951 37.7864 52.0994ZM38.7165 12.0591C38.4157 12.0676 38.1164 12.093 37.821 12.1356C37.3034 12.1991 36.8386 12.3694 36.3576 12.5454L36.2492 12.5852C37.1994 12.9299 38.1819 13.1831 39.2029 13.2743C40.5085 13.3911 41.8088 13.2949 43.0593 12.9583C41.9475 12.5519 40.8547 12.1945 39.6677 12.0883C39.3513 12.0599 39.0329 12.0502 38.7165 12.0591ZM32.967 20.3893C34.2776 19.1136 34.7649 17.4102 34.8532 15.6238C34.8874 14.7062 34.906 13.6927 34.6018 12.8156C34.4709 12.4026 34.2414 12.028 33.9861 11.6746C33.5041 13.048 33.1604 14.481 32.9812 15.9521C32.8039 17.4 32.7365 18.9521 32.967 20.3893ZM39.7243 20.2854C39.5364 21.8503 38.8996 23.3514 37.8825 24.559C38.1628 23.0259 38.614 21.4609 39.7243 20.2854ZM38.1946 18.6613C38.2986 18.0331 38.282 17.4178 38.1936 16.7961C38.1213 16.2703 37.9734 15.7849 37.7517 15.3165C37.7419 15.292 37.7263 15.267 37.7107 15.2419C37.695 15.2169 37.6794 15.1919 37.6697 15.1675C37.6281 15.2783 37.5857 15.3879 37.5432 15.4972C37.3928 15.8832 37.2444 16.2644 37.1516 16.6793C37.03 17.235 36.9538 17.8184 36.9016 18.4039C36.863 18.9685 36.8479 19.5411 36.8323 20.1138C36.8171 20.6835 36.802 21.2531 36.7639 21.8148C37.5383 20.9161 38.0422 19.828 38.1946 18.6613ZM39.1838 16.6958C40.8064 17.5492 42.4856 18.5729 43.424 20.1205C41.7195 19.3778 40.3484 18.1221 39.1838 16.6958Z" fill="white"/>
</svg>
