<svg width="86" height="112" viewBox="0 0 86 112" fill="none" xmlns="http://www.w3.org/2000/svg">
<path fill-rule="evenodd" clip-rule="evenodd" d="M79.8701 0C79.4488 3.68666 79.1328 7.26799 78.9221 10.744C78.8168 14.22 78.7641 16.8533 78.7641 18.644C78.7641 20.54 78.8168 22.3833 78.9221 24.174C79.0275 25.8593 79.1328 27.2813 79.2381 28.44H75.6041C74.9721 22.2253 74.0768 17.3273 72.9181 13.746C72.1668 11.3554 71.0612 9.42984 69.6012 7.96936C69.6187 8.04839 69.6341 8.1282 69.6472 8.20931C69.6865 8.21497 69.716 8.23504 69.7259 8.28396L69.7407 8.294C71.5231 10.4344 72.2647 13.3434 71.6592 16.0111C71.6495 16.0889 71.5069 16.0763 71.4921 16.0029C71.3896 15.0187 71.0427 14.1 70.6957 13.181C70.5865 12.892 70.4774 12.6029 70.3758 12.3118C70.0402 11.4086 69.8521 10.4791 69.6983 9.53076C69.6357 10.4163 69.406 11.2936 69.1025 12.1208C69.7671 12.8259 70.0586 13.889 70.2271 14.784C70.3105 15.2211 70.3694 15.6585 70.4282 16.0951C70.5161 16.7479 70.6037 17.399 70.7726 18.0448C70.7875 18.1182 70.6843 18.1746 70.6203 18.11C70.0047 17.2694 69.5757 16.3449 69.3334 15.3363C69.0911 14.3911 68.9864 13.3707 68.98 12.3961C68.8111 12.819 68.6311 13.2345 68.4511 13.65C68.2711 14.0654 68.0911 14.4809 67.9221 14.9038C67.7948 15.218 67.697 15.5522 67.5992 15.8865C68.4703 16.2559 68.8042 17.2428 69.0942 18.1C69.1332 18.2152 69.1716 18.3289 69.2102 18.4376C69.61 19.5955 70.0836 20.7402 70.5669 21.8704C70.6113 21.9639 70.4984 22.0347 70.4196 21.9601C69.6172 21.1402 69.0408 20.1786 68.5822 19.1706C68.2246 18.3666 67.9627 17.5455 67.6988 16.7182C67.6352 16.5188 67.5713 16.3184 67.5061 16.1185C67.3742 16.6616 67.2817 17.2103 67.2677 17.7704C67.2153 18.8316 67.3692 19.9065 67.7246 20.9076C67.7789 21.05 67.5677 21.1384 67.5134 20.996C67.1777 20.0294 67.0091 19.0077 67.0223 18.0043C66.4399 19.6542 65.3804 21.0851 63.9565 22.0994C63.8681 22.1659 63.7058 22.0555 63.7842 21.9401C64.2941 21.2846 64.6925 20.5533 65.0908 19.8219C65.6314 18.8294 66.1719 17.8369 66.9914 17.034C67.011 17.0052 67.0602 16.9964 67.0897 17.0165C67.148 16.5499 67.2358 16.1034 67.3777 15.6726C67.3949 15.6314 67.4059 15.5914 67.4169 15.5513C67.4279 15.5114 67.4388 15.4715 67.4559 15.4305C66.583 16.7141 65.3606 17.7178 63.9312 18.3277C63.8379 18.3697 63.7247 18.2505 63.7983 18.174C64.9562 16.7889 66.3012 15.6365 67.784 14.599C67.9034 14.3212 68.026 14.0456 68.1478 13.7715C68.2908 13.4497 68.4329 13.1301 68.5678 12.8118L68.744 12.3621C67.5918 14.2151 65.5194 15.4212 63.5646 16.3909C63.4713 16.4329 63.3531 16.2892 63.4563 16.2328C64.1388 15.7689 64.8213 15.305 65.4004 14.7075C65.717 14.3785 66.0007 14.0163 66.2859 13.6521C66.3986 13.5082 66.5116 13.364 66.6269 13.2214C66.6787 13.1563 66.7308 13.0906 66.7832 13.0244C67.4798 12.1445 68.2358 11.1897 69.2773 10.721C69.2944 10.6482 69.3091 10.5791 69.3237 10.5099C69.3384 10.4408 69.353 10.3716 69.3701 10.2989C69.4579 9.85243 69.5064 9.40026 69.5008 8.93239C68.9139 10.8746 66.8168 12.0217 65.0141 12.7362C64.9207 12.7782 64.8173 12.6446 64.9057 12.5781C65.3853 12.1584 65.8489 11.7278 66.3125 11.2972C66.6224 11.0094 66.9323 10.7216 67.247 10.437L69.4705 8.40556C69.4408 8.17492 69.4067 7.95064 69.3523 7.72814C68.9028 7.30602 68.4215 6.92567 67.9083 6.58711C66.5068 8.63308 64.2989 10.0718 61.8783 10.4357C61.8023 10.4549 61.7622 10.3176 61.8251 10.277C62.7048 9.82343 63.4343 9.16592 64.1641 8.50823C64.3935 8.30145 64.623 8.09465 64.8571 7.89417C65.5763 7.25296 66.3736 6.73949 67.201 6.2512C66.3534 6.51512 65.4526 6.6204 64.5717 6.63867C64.1568 7.51426 63.2726 8.17267 62.5002 8.65523C62.1233 8.89202 61.7372 9.1061 61.3518 9.3198C60.7758 9.63917 60.2014 9.95767 59.6615 10.3498C59.5985 10.3904 59.5084 10.3148 59.5453 10.2317C60.1043 9.35242 60.8094 8.61643 61.6606 8.02373C62.4529 7.45416 63.3652 6.98532 64.2707 6.62476C63.8153 6.62131 63.3628 6.6048 62.9104 6.5883C62.4579 6.57179 62.0054 6.55528 61.5499 6.55183C61.2111 6.54755 60.8643 6.57805 60.5174 6.60856C60.4903 7.55453 59.6921 8.22468 58.9992 8.8067C58.9059 8.88506 58.8145 8.96182 58.7271 9.03744C57.7941 9.83117 56.9002 10.6888 56.0232 11.5503C55.9523 11.6256 55.8452 11.5462 55.8861 11.4457C56.3579 10.4 57.0438 9.51308 57.8158 8.71915C58.4351 8.09311 59.105 7.55008 59.7801 7.00287C59.9424 6.87134 60.105 6.73957 60.2672 6.60635C59.7133 6.6811 59.1685 6.79455 58.6418 6.98537C57.6343 7.32259 56.689 7.85716 55.8858 8.55242C55.773 8.65478 55.6138 8.4902 55.7267 8.38783C56.5048 7.72349 57.3951 7.19466 58.3346 6.84188C56.5859 6.89971 54.8676 6.43346 53.4046 5.47629C53.3106 5.41816 53.3544 5.22674 53.4904 5.25785C54.2865 5.4943 55.1126 5.59921 55.9387 5.70411C57.0599 5.84649 58.1811 5.98886 59.2271 6.46004C59.2611 6.46782 59.2872 6.51039 59.2792 6.5452C59.735 6.42971 60.1829 6.34903 60.6358 6.32444C60.6803 6.32546 60.7216 6.32116 60.7628 6.31686C60.804 6.31255 60.8453 6.30825 60.8897 6.30928C59.3765 5.96318 57.9968 5.18984 56.9087 4.08034C56.8356 4.0087 56.9054 3.85987 57.0034 3.9006C58.7149 4.47514 60.2777 5.30866 61.7837 6.3123C62.0855 6.32244 62.3866 6.33626 62.6859 6.34999C63.0379 6.36615 63.3876 6.3822 63.7335 6.39203L64.2165 6.39262C62.4963 6.0726 60.9482 5.05013 59.5698 3.90063C58.0172 3.72287 56.3047 3.63399 54.4321 3.63399H46.0581C42.4768 3.63399 39.7381 3.95 37.8421 4.582C36.0515 5.10867 34.8401 6.32 34.2081 8.216C33.5761 10.0067 33.2601 12.8507 33.2601 16.748V45.5962C34.9193 45.5721 36.5519 45.5413 38.1581 45.504C42.6875 45.3987 45.9001 45.346 47.7961 45.346C54.1161 45.346 59.6461 46.1887 64.3861 47.874C68.9106 49.3494 72.7002 51.4217 75.7552 54.091C75.6582 53.4698 75.5322 52.8542 75.3813 52.2485C75.3907 52.1764 75.3641 52.0995 75.3374 52.0225C75.0507 51.6904 74.7594 51.3944 74.3819 51.1967C74.0742 51.026 73.7387 50.8965 73.4069 50.7685C73.3151 50.7331 73.2226 50.6974 73.132 50.6613C73.1273 50.6974 73.0866 50.7285 73.0506 50.7237C72.0265 50.9889 70.8973 50.6531 70.1485 49.9286C69.2023 49.0307 68.9184 47.6904 68.6925 46.468C68.6706 46.355 68.824 46.3024 68.8914 46.3481C70.5626 47.3072 71.9099 48.6443 72.85 50.2932C73.0718 50.4146 73.2983 50.5 73.5248 50.5855L73.5266 50.5862C74.1359 50.8335 74.8642 51.1518 75.2669 51.7196C75.0944 51.0728 74.9172 50.4621 74.7244 49.8309C74.372 49.3409 73.9762 48.9005 73.5768 48.4561L73.5761 48.4553L73.5752 48.4543L73.5743 48.4533C73.4119 48.2725 73.2483 48.0904 73.0873 47.9046C73.0105 47.9309 72.8868 47.8959 72.9009 47.7877C72.9033 47.7697 72.9005 47.7556 72.8978 47.7415L72.8956 47.7296C72.8948 47.7247 72.8942 47.7197 72.8939 47.7144C72.8936 47.7084 72.8937 47.7021 72.8946 47.6952C72.7959 47.6085 72.702 47.4859 72.6237 47.3837C71.9766 46.5812 71.4516 45.685 71.351 44.6262C71.3244 44.5493 71.4371 44.5278 71.4638 44.6047C71.6364 45.6733 72.1864 46.5177 72.8741 47.289C72.8284 46.5126 72.598 45.748 72.2501 45.0409C71.8599 44.2364 71.3773 43.4378 70.8086 42.7375C70.3249 43.4975 70.3111 44.4492 70.6246 45.28C71.0523 46.3244 71.9019 46.9856 72.7501 47.6456L72.8539 47.7264C72.9212 47.7722 72.8508 47.891 72.7834 47.8452C71.7293 47.3546 70.7362 46.3954 70.3521 45.2616C70.048 44.3587 70.0806 43.2628 70.713 42.4862C70.7584 42.419 70.8508 42.4132 70.8978 42.4745C71.0743 42.7611 71.2599 43.0408 71.4454 43.3205C71.8166 43.8799 72.1878 44.4396 72.4866 45.0545C72.8611 45.8386 73.1182 46.6801 73.1138 47.5597C73.2945 47.7616 73.4792 47.955 73.6634 48.1479L73.6642 48.1487L73.665 48.1496C73.9369 48.4343 74.208 48.7181 74.4626 49.0254C73.9092 47.0803 73.4888 45.0981 73.7716 43.064C73.7747 42.8994 74.0472 42.9178 74.0348 43.1546C73.7957 44.9928 74.1988 46.8259 74.7193 48.6016C74.7593 48.717 74.7903 48.8313 74.8212 48.9455C74.8521 49.0597 74.8832 49.1739 74.9231 49.2893C74.9793 48.8567 75.0356 48.4242 75.1278 47.9966C75.181 47.7288 75.2342 47.4607 75.3077 47.1773L75.2763 47.1364C74.7186 46.4927 74.723 45.613 74.8465 44.8045C74.9685 43.9763 75.1658 43.1695 75.3627 42.365C75.4179 42.139 75.4732 41.9132 75.5267 41.6871C75.5408 41.579 75.7099 41.5468 75.7679 41.6647C75.8432 41.8588 75.9232 42.0529 76.0035 42.2477L76.004 42.2488L76.0044 42.25L76.0049 42.2512C76.348 43.084 76.6961 43.9285 76.7116 44.8361C76.7386 45.7566 76.4586 46.7825 75.6381 47.3136C75.6201 47.3111 75.606 47.3138 75.592 47.3165C75.5779 47.3192 75.5638 47.3218 75.5458 47.3194C75.5239 47.4173 75.4981 47.5101 75.4723 47.6028C75.4465 47.6955 75.4206 47.7886 75.3987 47.8864C75.2376 48.5615 75.1329 49.2259 75.1363 49.9048C75.1336 49.9255 75.1325 49.9344 75.135 49.942C75.1368 49.9476 75.1406 49.9526 75.1473 49.9613C75.1808 50.0051 75.2041 50.0475 75.2256 50.0869C75.2443 50.121 75.2618 50.153 75.2836 50.1815C75.3149 50.2224 75.2899 50.274 75.2695 50.2896C75.4357 50.8438 75.6019 51.398 75.7477 51.9679C75.8055 51.6639 75.8791 51.3804 75.9729 51.0813C76.0779 50.7527 76.209 50.4275 76.3756 50.1185C76.3235 50.1399 76.2417 50.1008 76.2372 50.0351C76.2463 49.1194 76.4356 48.2281 76.7485 47.3717C77.0614 46.5154 77.5028 45.6581 78.1008 45.0052C78.1822 44.9429 78.3059 44.9779 78.3075 45.1065C78.307 45.5534 78.3724 45.9949 78.4375 46.4346C78.5379 47.1133 78.6377 47.7874 78.4934 48.4691C78.2885 49.34 77.6687 50.3016 76.6837 50.4071C76.6711 50.4167 76.6603 50.4126 76.6454 50.4069C76.6362 50.4033 76.6254 50.3992 76.6116 50.3973C76.4864 50.6555 76.3612 50.9137 76.2721 51.1767C76.1391 51.6356 76.0218 52.1149 75.9405 52.599C75.9648 52.694 75.984 52.7928 76.0032 52.8916C76.0225 52.9905 76.0417 53.0894 76.066 53.1844C76.1596 53.6449 76.2369 54.1099 76.2968 54.5776C76.3293 54.6077 76.3618 54.6378 76.3941 54.668C76.7829 55.0308 77.1597 55.4025 77.5245 55.7828C77.6633 55.5743 77.7895 55.3548 77.9036 55.1195C77.9263 55.0858 77.9401 55.051 77.9538 55.0161C77.9674 54.9813 77.9811 54.9465 78.0037 54.9129C77.9959 54.9027 77.9932 54.8886 77.9905 54.8745C77.9877 54.8604 77.985 54.8463 77.9771 54.836C77.5759 53.975 77.6241 52.8996 77.8697 51.9975C78.109 51.0028 78.6677 50.088 79.4349 49.403C79.4959 49.3562 79.5633 49.402 79.5946 49.4429C80.6288 51.2145 80.0533 53.6675 78.3623 54.833L78.2872 54.9879C78.158 55.3491 77.9707 55.7026 77.7547 56.0257L77.8185 56.094C79.1962 55.7091 80.7346 55.8282 82.0195 56.4451C82.1229 56.4957 82.1402 56.6448 82.0228 56.7023C81.1321 57.1187 80.0874 57.4641 79.0538 57.5144C80.9203 59.8133 82.4038 62.3932 83.5041 65.254C85.0841 69.2567 85.8741 73.6807 85.8741 78.526C85.8741 82.634 85.2421 86.6893 83.9781 90.692C82.7141 94.5893 80.5021 98.1707 77.3421 101.436C74.2875 104.596 70.0741 107.124 64.7021 109.02C59.3301 110.916 52.5361 111.864 44.3201 111.864C41.5815 111.864 38.8428 111.811 36.1041 111.706C33.4708 111.495 29.5735 111.39 24.4121 111.39C21.4628 111.39 18.1448 111.443 14.4581 111.548C10.8768 111.548 7.9801 111.653 5.7681 111.864V108.704C9.34946 108.493 12.0355 108.072 13.8261 107.44C15.7221 106.808 16.9861 105.544 17.6181 103.648C18.2501 101.752 18.5661 98.908 18.5661 95.116V94.5624C18.4117 94.8199 18.2545 95.0704 18.0973 95.3209L18.0932 95.3274C18.1552 95.3837 18.1827 95.4536 18.1413 95.5506C18.1482 95.5681 18.143 95.5802 18.1378 95.5923C18.1326 95.6045 18.1274 95.6166 18.1343 95.6341C18.8689 99.4215 16.7488 103.445 13.493 105.292C13.3343 105.395 13.0518 105.183 13.2174 104.997C14.1836 103.93 14.5856 102.558 14.9785 101.216C15.0712 100.9 15.1633 100.585 15.2622 100.277C15.5111 99.4925 15.8082 98.7297 16.2363 97.996C16.3851 97.7511 16.5481 97.5124 16.7129 97.2713C16.9763 96.8857 17.2442 96.4937 17.4651 96.059C16.7197 96.9984 15.8296 97.8736 14.8706 98.5742C14.6211 100.166 13.9924 101.705 13.1914 103.11C12.3904 104.515 11.4171 105.989 10.058 106.887C9.89936 106.99 9.68576 106.751 9.87896 106.635C11.169 105.763 12.2114 104.263 12.9916 102.906C13.7167 101.612 14.1935 100.294 14.5463 98.8633C13.9461 99.2611 13.3322 99.624 12.6907 99.9169L12.4493 100.012C11.8826 101.607 11.2332 103.195 10.129 104.437C8.98316 105.726 7.42021 106.549 5.91896 107.339L5.86557 107.367C5.72762 107.422 5.5416 107.253 5.60378 107.107C6.36329 105.799 7.40532 104.703 8.49559 103.627C8.7901 103.333 9.07962 103.051 9.36906 102.769L9.36936 102.768C9.66976 102.475 9.97026 102.182 10.2759 101.877C10.7659 101.401 11.1938 100.87 11.6217 100.338C10.1043 100.935 8.50439 101.323 6.90448 101.711C6.75278 101.73 6.69094 101.472 6.82888 101.418L6.94154 101.387C8.30214 101.008 9.63046 100.638 10.9393 100.122C10.0269 100.292 9.0925 100.36 8.15739 100.429C6.69661 100.535 5.23402 100.642 3.85056 101.138C3.67813 101.206 3.56804 100.926 3.74047 100.858C5.20605 100.259 6.77604 100.162 8.3473 100.065C9.68206 99.9822 11.0178 99.8995 12.2912 99.5092C12.3774 99.4753 12.4516 99.436 12.5257 99.3967C12.5999 99.3574 12.674 99.3181 12.7602 99.2841C12.0155 99.4159 11.2364 99.3595 10.4918 99.2894C9.96106 99.2201 9.43836 99.121 8.91761 99.0223C7.62557 98.7774 6.34446 98.5347 4.98328 98.7542C4.83158 98.7736 4.73525 98.529 4.8732 98.4747L4.90768 98.4611C6.23901 97.6947 7.65971 97.2563 9.20386 97.5362C9.77786 97.6309 10.3492 97.8277 10.9224 98.0252C12.0085 98.3993 13.101 98.7757 14.2295 98.4634C14.6917 98.1199 15.1195 97.79 15.5542 97.3766L15.5565 97.3743C16.0112 96.9132 16.4658 96.452 16.8585 95.9347C15.8926 96.7187 14.7614 97.2852 13.5065 97.3354C11.5965 97.4417 9.68076 96.2183 8.32357 94.896C8.19955 94.7834 8.28245 94.5893 8.44791 94.6049C9.26486 94.707 10.0836 94.7882 10.9023 94.8695C11.7209 94.9507 12.5398 95.0319 13.3566 95.134C14.894 95.2955 16.5831 95.4377 17.8664 94.448L17.9009 94.4344C17.932 94.3616 17.9751 94.2942 18.0183 94.2267C18.0614 94.1592 18.1046 94.0918 18.1356 94.019C18.3035 93.7076 18.4408 93.3933 18.5661 93.0779V92.6535C17.3231 93.6202 15.8507 94.2467 14.2811 94.4471C14.1639 94.4529 14.1295 94.2646 14.2468 94.2588C15.8356 93.9706 17.2938 93.3507 18.5661 92.4207V83.0792C18.4729 83.1606 18.3797 83.2415 18.2865 83.3225C18.3361 83.4054 18.343 83.4918 18.2647 83.585C18.2665 83.6066 18.2567 83.6183 18.2469 83.6299C18.2371 83.6416 18.2273 83.6532 18.229 83.6748C17.7697 88.101 14.0808 91.8306 9.86796 92.7774C9.65836 92.8377 9.41756 92.5094 9.66286 92.3593C11.0865 91.5065 11.9905 90.1264 12.874 88.7775C13.0825 88.4593 13.2898 88.1428 13.5025 87.8354C14.0401 87.0534 14.6238 86.3111 15.3423 85.645C15.5884 85.4247 15.8482 85.2162 16.1107 85.0055C16.5308 84.6683 16.9584 84.3251 17.348 83.9194C16.2104 84.7061 14.9345 85.3736 13.6412 85.8251C12.8321 87.4981 11.6221 88.986 10.2669 90.2682C8.91171 91.5504 7.34345 92.8498 5.54232 93.3856C5.33273 93.4459 5.17714 93.1107 5.42935 93.047C7.14525 92.5181 8.79872 91.2118 10.1148 89.9762C11.3491 88.7906 12.3173 87.496 13.1864 86.0355C12.3906 86.2732 11.5914 86.4678 10.7852 86.576L10.4869 86.6C9.32636 88.1708 8.07728 89.7053 6.44214 90.7058C4.74723 91.7429 2.74908 92.1267 0.829023 92.4956L0.754333 92.5099C0.583883 92.5236 0.435233 92.2748 0.552663 92.135C1.82956 90.946 3.34726 90.0852 4.91105 89.2643C5.34288 89.034 5.76492 88.8154 6.18695 88.5968C6.60899 88.3783 7.03103 88.1597 7.46285 87.9294C8.16299 87.5689 8.81359 87.1255 9.46416 86.6821C7.58921 86.8328 5.69343 86.7243 3.79766 86.6158C3.62374 86.5863 3.64207 86.2807 3.81252 86.267L3.9346 86.2699C5.56768 86.3082 7.16183 86.3456 8.78336 86.2153C7.7188 86.0972 6.66423 85.859 5.60882 85.6206C3.96143 85.2485 2.31202 84.8759 0.619533 84.9589C0.406473 84.9761 0.378723 84.6306 0.591793 84.6135C2.41033 84.4439 4.17583 84.8632 5.94277 85.2828C7.44335 85.6391 8.94497 85.9957 10.481 85.9921C10.5875 85.9835 10.6825 85.965 10.7774 85.9465C10.8725 85.928 10.9675 85.9095 11.0741 85.9009C10.2079 85.7967 9.36706 85.4731 8.5688 85.1461C8.00598 84.8915 7.46199 84.6067 6.92 84.323C5.57626 83.6195 4.2447 82.9224 2.66891 82.7083C2.49498 82.6788 2.4707 82.3765 2.64116 82.3629L2.68377 82.3594C4.41008 81.96 6.12499 81.9526 7.73536 82.7794C8.33701 83.0763 8.90158 83.4851 9.46796 83.8952C10.5411 84.6723 11.6206 85.454 12.9708 85.4878C13.5961 85.2638 14.1788 85.0431 14.7972 84.7327C15.4547 84.3757 16.1123 84.0186 16.7202 83.5787C15.3913 84.12 13.9529 84.3659 12.5511 84.0005C10.4076 83.4773 8.70357 81.4847 7.64914 79.5703C7.55004 79.4045 7.70661 79.2181 7.884 79.2907C8.75127 79.6773 9.62746 80.0415 10.5036 80.4056C11.38 80.7698 12.2564 81.1341 13.1239 81.5208C14.7665 82.2146 16.583 82.9378 18.3311 82.2759L18.3737 82.2725C18.4305 82.2049 18.4981 82.1465 18.5661 82.0885V80.8932C17.2025 81.2428 15.7778 81.3106 14.3746 81.0727C14.2432 81.0397 14.2685 80.8204 14.3998 80.8533C15.8182 81.018 17.2172 80.9417 18.5661 80.6269V78.2056C18.3304 78.2548 18.0974 78.3063 17.8738 78.3587C16.8348 78.6318 15.8067 79.0205 14.8194 79.4588C14.7236 79.4961 14.6468 79.3515 14.7425 79.3142C15.7392 78.785 16.7673 78.3963 17.8409 78.0117L18.5661 77.7773V77.6459C18.5302 77.64 18.4935 77.6348 18.4547 77.6313C18.0043 77.5447 17.579 77.4374 17.1537 77.3301C17.1238 77.3962 17.0736 77.4375 16.9826 77.4293C16.9701 77.4396 16.9587 77.4386 16.9473 77.4376C16.9359 77.4366 16.9245 77.4355 16.9119 77.4459C13.9877 79.0624 10.1066 78.3901 7.71525 76.2008C7.58815 76.0976 7.68709 75.8083 7.88482 75.895C9.02124 76.4062 10.2596 76.3709 11.47 76.3363C11.7555 76.3282 12.0394 76.3201 12.32 76.3192C13.0325 76.3149 13.7404 76.356 14.4591 76.5128C14.7008 76.57 14.9411 76.6406 15.184 76.7121C15.5718 76.8262 15.9663 76.9421 16.3831 77.008C15.4102 76.6447 14.4514 76.145 13.6181 75.542C12.2401 75.7614 10.8041 75.6544 9.43246 75.3697C8.06079 75.0851 6.58718 74.6764 5.48407 73.7966C5.35697 73.6934 5.49671 73.4537 5.6442 73.5817C6.70652 74.4119 8.22094 74.8701 9.54706 75.1507C10.8073 75.4024 12.0205 75.4433 13.2933 75.352C12.8053 74.9637 12.3424 74.5548 11.9298 74.1045L11.787 73.931C10.3211 73.8902 8.83956 73.7791 7.52137 73.201C6.15512 72.6018 5.06119 71.5356 4.01001 70.511L3.96879 70.4708C3.8872 70.3716 3.97671 70.1733 4.11325 70.1856C5.39385 70.4621 6.57551 71.0278 7.75245 71.639C8.07883 71.8058 8.39388 71.9716 8.70891 72.1374C9.02547 72.304 9.34216 72.4707 9.67006 72.6383C10.1927 72.915 10.745 73.1255 11.2974 73.3361C10.3999 72.2455 9.65316 71.031 8.90644 69.8164C8.84997 69.6965 9.04618 69.5767 9.12777 69.6758L9.17936 69.7537C9.85626 70.7758 10.5171 71.7736 11.2929 72.7163C10.9088 72.0097 10.603 71.2578 10.297 70.5052C9.81916 69.3305 9.34086 68.1543 8.56338 67.1471C8.4614 67.0232 8.66233 66.8578 8.76431 66.9818C9.64926 68.0295 10.1486 69.2972 10.6484 70.5659C11.0728 71.6434 11.4976 72.7216 12.159 73.6665C12.21 73.7284 12.2622 73.7791 12.3144 73.8297C12.3665 73.8802 12.4187 73.9308 12.4697 73.9928C12.1622 73.4144 12.0007 72.7574 11.8596 72.1253C11.7749 71.6692 11.7169 71.2118 11.6591 70.756C11.5159 69.6262 11.374 68.5067 10.8296 67.4439C10.7732 67.3241 10.949 67.1794 11.0306 67.2786L11.051 67.3034C12.0379 68.1956 12.7784 69.249 12.9602 70.5961C13.0354 71.0942 13.0258 71.6175 13.0162 72.1424C12.998 73.1371 12.9796 74.1378 13.5382 74.9842C13.9446 75.2733 14.3307 75.5376 14.7873 75.7854L14.7882 75.7859C15.2901 76.0376 15.792 76.2893 16.3236 76.475C15.4198 75.8885 14.6509 75.1078 14.2745 74.0873C13.6769 72.5421 14.1733 70.637 14.9004 69.1657C14.96 69.0335 15.1421 69.05 15.1734 69.1905C15.3075 69.8909 15.4591 70.5871 15.6108 71.2832C15.7625 71.9794 15.9142 72.6756 16.0482 73.376C16.3256 74.6858 16.6596 76.1154 17.8177 76.9084L17.838 76.9332C17.9064 76.9394 17.9735 76.9569 18.0407 76.9745C18.1077 76.992 18.1748 77.0095 18.2429 77.0157C18.3513 77.0356 18.459 77.052 18.5661 77.0659V76.2772C17.8583 75.622 17.2772 74.8373 16.861 73.9542C16.8249 73.8592 16.9709 73.7807 17.007 73.8757C17.4315 74.6661 17.9541 75.3757 18.5661 75.994V35.8498C15.1595 36.745 11.4717 36.6949 8.05782 35.9999C8.02031 35.975 8.02031 35.975 7.98946 35.9815C7.75347 35.9328 7.87181 35.5785 8.06359 35.5708C9.61666 35.4825 11.1727 35.1815 12.7311 34.8802C14.6726 34.5047 16.618 34.1284 18.5661 34.1617V33.9314C17.66 33.7224 16.7117 33.613 15.8085 33.5089C15.6325 33.4886 15.4579 33.4684 15.286 33.4478C14.0644 33.3116 12.8537 33.0744 11.6954 32.6286C10.6881 32.7433 9.64746 32.7005 8.69268 32.6065C7.63868 32.5007 6.61301 32.2243 5.62902 31.8402C3.6235 31.0473 1.83971 29.7793 0.0934528 28.5364C-0.131708 28.3866 0.0925469 28.0757 0.317703 28.2255C3.3415 30.0207 6.65287 31.1954 10.0292 31.7637C9.37376 31.4088 8.79748 30.9713 8.20788 30.4708C8.11947 30.3579 8.27788 30.1926 8.39045 30.2675C9.43036 31.0676 10.6663 31.7275 11.8863 32.1602C11.9125 32.1673 11.9331 32.1707 11.9508 32.1736C11.9793 32.1783 11.9999 32.1817 12.023 32.1971C12.0539 32.1906 12.0787 32.1935 12.1035 32.1965C12.1283 32.1995 12.1531 32.2024 12.1839 32.1959C12.2523 32.2143 12.2898 32.2393 12.2965 32.2708C12.7367 32.404 13.2003 32.5005 13.6643 32.5963C13.6529 32.5865 13.6485 32.5657 13.6441 32.5449C13.1254 32.2268 12.655 31.8327 12.2155 31.4321C11.4116 30.6807 10.7043 29.7772 10.0655 28.8921C8.70597 27.0405 7.62832 24.9975 6.84584 22.8262C6.78161 22.6752 6.98422 22.5664 7.0793 22.7109C7.75072 23.9126 8.69429 24.9194 9.63606 25.9243C10.0783 26.3961 10.5202 26.8676 10.9332 27.3586C12.2259 28.8952 13.1818 30.6677 14.1068 32.4468C14.2005 32.5091 14.2925 32.5636 14.3845 32.618C14.4767 32.6726 14.5692 32.7274 14.663 32.7898C14.9105 32.8194 15.1487 32.8429 15.3868 32.8663C15.626 32.8899 15.8655 32.9134 16.114 32.9432C16.9097 33.017 17.7469 33.1185 18.5661 33.2985V32.2871C18.1626 31.9595 17.7637 31.6297 17.3761 31.2932C16.1085 30.1792 14.825 28.8382 14.2486 27.1828C14.171 26.9688 14.3911 26.7905 14.5546 26.9533C15.7939 28.2379 17.1365 29.4018 18.5275 30.4896L18.5661 30.5205V26.0133C14.2561 25.2223 10.2783 22.753 7.20783 19.6831C7.19031 19.6416 7.19032 19.6416 7.16097 19.63C6.99106 19.4592 7.28524 19.229 7.44944 19.3284C8.79342 20.1117 10.2571 20.7192 11.723 21.3277C13.8648 22.2168 16.0116 23.108 17.7968 24.552C17.0322 23.5526 16.0057 22.6892 15.0456 21.8816C14.9103 21.7677 14.7761 21.655 14.6443 21.5431C13.7006 20.7555 12.8217 19.8895 12.1018 18.8786C11.1984 18.4185 10.3542 17.8085 9.60976 17.2034C8.7891 16.5335 8.08624 15.737 7.47749 14.8738C6.24248 13.1058 5.45444 11.0642 4.68392 9.06399C4.57879 8.81482 4.93735 8.67931 5.04247 8.92847C6.57372 12.0941 8.68722 14.9009 11.1894 17.2379C10.8386 16.5803 10.5994 15.8974 10.3839 15.1547C10.3725 15.0117 10.5958 14.9613 10.6483 15.0859C11.0741 16.327 11.7407 17.5592 12.5194 18.5933C12.5373 18.6136 12.5527 18.6278 12.5658 18.64C12.587 18.6597 12.6023 18.6739 12.6131 18.6995C12.6425 18.7111 12.6615 18.7272 12.6806 18.7434C12.6996 18.7596 12.7187 18.7758 12.748 18.7873C12.7948 18.8404 12.8124 18.8819 12.8005 18.9119C13.0942 19.2659 13.4276 19.6022 13.7616 19.9382C13.7575 19.9237 13.7653 19.9039 13.7731 19.8841C13.516 19.3327 13.3412 18.7444 13.1958 18.1677C12.9399 17.0975 12.8486 15.9537 12.8041 14.8631C12.6921 12.5687 12.9206 10.2703 13.4662 8.02761C13.4959 7.86626 13.7249 7.88734 13.7245 8.06027C13.6214 9.43292 13.8527 10.7933 14.0837 12.151C14.1921 12.7885 14.3005 13.4256 14.374 14.063C14.6043 16.0577 14.4234 18.0634 14.2132 20.0576C14.257 20.1614 14.3038 20.2577 14.3505 20.354C14.3973 20.4504 14.444 20.5467 14.4878 20.6505C14.6783 20.8122 14.8644 20.9635 15.0505 21.1148C15.2366 21.2661 15.4227 21.4174 15.6132 21.5791C16.6678 22.4266 17.778 23.406 18.5661 24.5639V24.102C18.4771 23.8186 18.3866 23.5356 18.2962 23.2527L18.2958 23.2517C18.0446 22.4658 17.794 21.6818 17.5763 20.8994C17.1338 19.2709 16.8033 17.4443 17.236 15.7457C17.2894 15.5244 17.5713 15.4971 17.6178 15.7232C17.8592 17.0275 18.1849 18.3078 18.5661 19.5668V16.748C18.5661 12.8507 18.2501 10.0067 17.6181 8.216C16.9861 6.32 15.7221 5.056 13.8261 4.424C12.0355 3.68666 9.34946 3.26533 5.7681 3.16V0C9.66546 0.105332 13.7735 0.210666 18.0921 0.315998C22.4108 0.315998 26.6768 0.368663 30.8901 0.473995H42.5821H51.5881H65.6501C70.9168 0.368663 75.6568 0.210664 79.8701 0ZM60.5957 4.03444C60.6681 4.06806 60.7413 4.10046 60.8153 4.13151C61.2371 4.30675 61.6778 4.43925 62.121 4.5725C62.2959 4.62509 62.4712 4.67779 62.6458 4.73328C62.7253 4.75788 62.8056 4.78246 62.8863 4.80719C63.9593 5.1359 65.1237 5.49263 65.9392 6.29221C66.0132 6.28167 66.0829 6.27015 66.1526 6.25863C66.2223 6.24711 66.2921 6.23559 66.366 6.22504C66.5929 6.18417 66.8174 6.13337 67.0402 6.07039C66.9983 6.04801 66.9563 6.02589 66.9141 6.004C66.757 5.91333 66.5951 5.82526 66.4286 5.73979C65.8858 5.60523 65.3634 5.36662 64.8688 5.06445C63.6347 4.61538 62.2104 4.27204 60.5957 4.03444ZM60.0303 3.95656C60.2525 4.08339 60.472 4.19922 60.7035 4.30737C61.2577 4.54399 61.8238 4.72841 62.394 4.89543C62.5481 4.94369 62.7015 4.99075 62.8542 5.0376C63.3466 5.18865 63.8315 5.33744 64.3095 5.51663C64.8166 5.72419 65.2989 5.96265 65.7062 6.29386C65.6342 6.2957 65.5612 6.3019 65.4883 6.3081C65.4153 6.3143 65.3423 6.3205 65.2703 6.32234C63.2609 6.23553 61.52 5.19494 59.9586 3.94743C59.9825 3.95045 60.0064 3.95349 60.0303 3.95656ZM67.4722 6.31401C66.5677 6.84411 65.6917 7.41099 64.8813 8.10114C64.6615 8.29019 64.4454 8.48529 64.2293 8.68039C63.6352 9.21677 63.0411 9.75314 62.37 10.1636C64.539 9.67388 66.4839 8.34016 67.7623 6.49248C67.6667 6.43157 67.57 6.37208 67.4722 6.31401ZM18.5661 30.9634C18.4266 30.8422 18.2823 30.7237 18.1332 30.6061C17.4092 30.0308 16.723 29.4159 16.028 28.7932C15.7185 28.5159 15.4071 28.2368 15.09 27.9591C15.8332 29.1842 16.8273 30.2244 17.9248 31.144C18.1374 31.3204 18.3516 31.4943 18.5661 31.6676V30.9634ZM18.5661 34.4891C16.7636 34.5041 14.9745 34.8651 13.1842 35.2264C11.9617 35.4731 10.7386 35.7199 9.51036 35.8567C11.2857 36.1718 13.1001 36.2153 14.8987 36.0317C16.1557 35.9132 17.3698 35.6547 18.5661 35.2944V35.0124C17.778 35.1707 16.9813 35.2886 16.176 35.366C16.1143 35.379 16.0943 35.2845 16.156 35.2715C16.9631 35.1505 17.7725 34.953 18.5661 34.7261V34.4891ZM18.5661 22.5119V20.6802C18.2892 19.8219 18.0619 18.9521 17.8317 18.0714C17.7265 17.669 17.6208 17.2643 17.5094 16.8574C17.4532 18.2892 17.7083 19.7052 18.1162 21.0777C18.2191 21.418 18.3265 21.7563 18.4339 22.0945L18.4345 22.0963C18.4785 22.2348 18.5224 22.3732 18.5661 22.5119ZM33.2601 95.116V48.5399C34.4075 48.5173 35.5662 48.506 36.7361 48.506C39.3695 48.4007 41.2655 48.348 42.4241 48.348C48.9457 48.348 54.1772 49.3515 58.1184 51.3584C58.342 51.8673 58.6339 52.3456 58.9852 52.7711C58.5656 52.6773 58.1202 52.628 57.6934 52.6491L57.5216 52.639C55.7975 51.5231 53.3111 51.9305 52.0703 53.5642C52.0445 53.6088 52.0281 53.6885 52.0946 53.727C53.0212 54.1735 54.0802 54.3394 55.0907 54.1797C56.0181 54.0612 57.03 53.694 57.6718 52.9937C57.6759 52.9866 57.6822 52.9808 57.6894 52.9755L57.6972 52.9701L57.7023 52.9667C57.7143 52.9588 57.7263 52.9509 57.7327 52.9397C57.7725 52.9478 57.8099 52.9471 57.8473 52.9464C57.8847 52.9457 57.9222 52.945 57.9619 52.9531C58.4775 52.9834 58.9544 53.0806 59.4277 53.2352C59.4523 53.2631 59.4797 53.2863 59.5051 53.3079C59.5351 53.3333 59.5624 53.3565 59.5794 53.3825C59.6553 53.4561 59.7606 53.4277 59.8122 53.3385C59.8453 53.348 59.879 53.3578 59.9131 53.3677C60.0887 53.4188 60.2763 53.4733 60.4573 53.5032C59.1961 53.9941 57.9943 54.6385 56.8777 55.3915C56.7993 55.4503 56.7153 55.506 56.6314 55.5616C56.5474 55.6171 56.4634 55.6728 56.385 55.7316C55.9066 55.8418 55.4189 55.917 54.9441 55.9698C54.667 55.9881 54.3805 55.9713 54.0941 55.9545C54.0906 55.9411 54.0902 55.9295 54.09 55.9196C54.0895 55.9037 54.0892 55.8921 54.0755 55.8842C53.601 55.0146 52.4753 54.8102 51.5923 54.9543C50.9074 55.0821 50.3228 55.4323 49.7342 55.7849C49.353 56.0133 48.9701 56.2428 48.5571 56.4134C48.4389 56.4641 48.4539 56.5918 48.5427 56.6431C49.3747 56.9457 50.3357 57.0252 51.2466 56.9864C52.1575 56.9477 53.0534 56.7812 53.9028 56.439C53.9618 56.4097 53.9666 56.3191 53.9268 56.2792C54.2761 56.3149 54.6267 56.3115 54.9705 56.2827C55.2827 56.2549 55.5728 56.2143 55.8757 56.1513C55.4064 56.5032 54.9592 56.8679 54.512 57.2326L54.5084 57.2356C54.4862 57.2228 54.4289 57.2194 54.4031 57.264C54.3852 57.295 54.3624 57.3233 54.3381 57.3536C54.31 57.3886 54.2796 57.4264 54.2519 57.4742C54.2391 57.4963 54.239 57.4965 54.204 57.506C53.578 57.769 52.9242 57.9266 52.2388 58.0363C52.14 58.0536 52.0444 58.0652 51.9488 58.0769C51.8532 58.0886 51.7576 58.1003 51.6588 58.1175C51.6542 58.1 51.6463 58.088 51.6384 58.076C51.6339 58.069 51.6293 58.062 51.6253 58.054C51.6241 58.0515 51.6229 58.0488 51.6218 58.046C51.6204 58.0424 51.6191 58.0386 51.618 58.0344C50.8132 57.4798 49.7584 57.6139 48.9183 57.9912C48.0859 58.3529 47.4393 58.9974 46.8015 59.6331L46.8007 59.6339C46.6509 59.7833 46.501 59.9326 46.3498 60.0772C46.2631 60.1759 46.3576 60.3198 46.4629 60.2914C46.6917 60.2544 46.9209 60.219 47.1503 60.1837L47.1514 60.1835C47.9698 60.0573 48.7915 59.9307 49.6031 59.7263C50.3973 59.5308 51.2116 59.1982 51.5928 58.4365L51.6186 58.3919C51.9072 58.3515 52.174 58.2983 52.4405 58.2452L52.4443 58.2444C52.8735 58.1661 53.2935 58.0528 53.7135 57.9395L53.7169 57.9386C53.6256 58.0197 53.5319 58.092 53.4383 58.1643C53.3446 58.2367 53.251 58.309 53.1596 58.3901C51.7185 59.5508 50.1793 60.6249 48.3897 61.1079C48.1662 61.187 48.2535 61.4458 48.4068 61.3856C50.3941 60.8682 52.0644 59.721 53.6494 58.465C53.4629 58.818 53.3046 59.1769 53.1456 59.5373C53.0377 59.7819 52.9294 60.0275 52.8118 60.2722C51.9975 60.6049 51.3185 61.1646 50.7376 61.8108C50.2838 62.3223 49.909 62.8795 49.5341 63.4367C49.3468 63.7151 49.1596 63.9935 48.9624 64.2662C48.9237 64.3331 48.9645 64.4163 49.044 64.4324C50.0035 64.7194 51.0283 64.3299 51.746 63.7033C52.6464 62.9145 53.1523 61.6297 53.202 60.4681C53.2185 60.3883 53.0818 60.3688 53.0653 60.4485L53.0304 60.5753C52.7454 61.6115 52.4598 62.6496 51.6587 63.4445C51.0112 64.0522 50.1267 64.4038 49.2395 64.2479C49.6687 63.4545 50.2217 62.7029 50.8156 62.0344C51.3356 61.4423 51.9537 60.9367 52.6535 60.5973C52.2042 61.5279 51.6347 62.3592 50.7136 62.9278C50.6527 62.9819 50.7157 63.0778 50.7766 63.0237C51.7163 62.5255 52.3431 61.6975 52.8367 60.7925C52.9012 60.681 52.9786 60.5472 53.0209 60.4228C53.0385 60.4181 53.0505 60.4101 53.0625 60.4022C53.0745 60.3943 53.0865 60.3863 53.104 60.3816C53.2092 60.3532 53.1942 60.2255 53.1405 60.1647C53.251 59.944 53.3566 59.7229 53.4619 59.5027L53.4624 59.5018C53.7202 58.9626 53.9756 58.428 54.2934 57.9148C54.8026 57.495 55.299 57.0975 55.8304 56.6906C55.4601 57.28 55.4448 58.0746 55.4496 58.7322C55.4575 58.9748 55.4653 59.2173 55.438 59.4694C54.2746 60.9692 53.5552 62.7257 53.309 64.6368C53.2925 64.7165 53.3999 64.8381 53.4959 64.7746C54.5387 64.0979 55.6682 63.3225 56.1355 62.1047C56.5181 61.1356 56.396 59.9638 55.7589 59.1193C55.7496 59.0842 55.7052 59.0585 55.6701 59.068C55.6687 58.9704 55.6663 58.8721 55.6639 58.7736C55.6552 58.4178 55.6464 58.0581 55.6862 57.7083C55.7243 57.2839 55.8862 56.9014 56.0833 56.5094L56.0841 56.5087C56.1447 56.4549 56.2053 56.4012 56.2752 56.3823C57.9042 55.177 59.7306 54.1734 61.6694 53.5649C61.9462 53.7831 62.2153 54.0089 62.4767 54.2425C62.2945 54.4982 62.1279 54.7628 61.9715 55.0334C61.3443 54.5815 60.4799 54.7959 59.8818 55.1644C59.3883 55.4577 58.9412 55.822 58.4962 56.1846C58.2091 56.4185 57.9222 56.6522 57.6249 56.8652C57.5161 56.951 57.5533 57.0916 57.69 57.1111C58.5143 57.1711 59.3787 56.9566 60.1228 56.6429C60.6305 56.4306 61.1197 56.148 61.5774 55.8174C61.5369 55.9131 61.494 56 61.4512 56.087C61.4084 56.1737 61.3657 56.2605 61.3252 56.356C61.2328 56.3622 61.1497 56.4034 61.1425 56.5183C61.1389 56.5757 61.1446 56.6683 61.1632 56.7386C60.9739 57.194 60.7956 57.6559 60.6173 58.1177C60.4387 58.5804 60.2601 59.043 60.0704 59.4993C60.0389 59.4513 59.9723 59.4128 59.9022 59.4318C58.2111 59.8455 57.5535 61.6185 56.9595 63.2198C56.7658 63.7417 56.579 64.2454 56.3653 64.6779C56.3267 64.7448 56.3803 64.8056 56.4505 64.7867C58.6814 64.0529 61.0687 61.9216 60.4564 59.3951C60.4471 59.36 60.4249 59.3472 60.4249 59.3472C60.7158 58.7416 60.9846 58.1232 61.2311 57.492L61.2826 57.4028C61.3976 58.6894 61.6751 59.951 62.1059 61.1524C62.1431 61.2929 62.3722 61.3064 62.4052 61.1469L62.4186 61.0922C62.631 60.2228 62.8485 59.3327 62.7239 58.4445C62.6432 57.7133 62.3111 56.9559 61.6839 56.5039C62 55.8248 62.3562 55.1449 62.7836 54.5236C64.1109 55.7693 65.2306 57.2228 66.1426 58.8838C66.0345 59.6163 65.9836 60.3561 65.9839 61.0876C65.9098 61.4657 65.7288 61.8013 65.5114 62.1349C63.8548 61.4409 61.9285 62.0969 60.4665 62.9246C60.3539 62.991 60.3827 63.1383 60.4897 63.1807C61.8635 63.7132 63.4658 63.6942 64.8403 63.1528C64.6211 63.5227 64.4363 63.9309 64.3241 64.3433L64.2612 64.5035C62.6661 65.797 62.2831 68.2873 63.4519 69.9731C63.4863 70.0115 63.557 70.0519 63.6142 70.0005C64.3258 69.2579 64.8117 68.3024 64.9729 67.2921C65.1476 66.3737 65.112 65.2977 64.6451 64.4706C64.6365 64.461 64.6327 64.4471 64.6288 64.4333C64.625 64.4194 64.6211 64.4055 64.6125 64.3959C64.6325 64.3607 64.6435 64.3249 64.6544 64.2891C64.6654 64.2534 64.6763 64.2175 64.6963 64.1822C64.8848 63.7014 65.125 63.2781 65.4187 62.876C65.4528 62.8612 65.4833 62.8424 65.5116 62.825C65.5452 62.8043 65.5757 62.7855 65.6057 62.7773C65.6993 62.7279 65.7049 62.6191 65.636 62.5424L65.6539 62.516L65.6959 62.4541C65.7986 62.3033 65.9082 62.1423 65.9925 61.98C66.0685 63.3312 66.3088 64.6735 66.6788 65.9685C66.7105 66.0615 66.7374 66.1587 66.7643 66.256L66.7646 66.257C66.7912 66.3535 66.818 66.4502 66.8494 66.5424C66.8061 67.0314 66.7264 67.5183 66.6295 67.9861C66.5614 68.2543 66.4571 68.5204 66.3528 68.7866L66.3516 68.7896C66.3378 68.7888 66.3267 68.7855 66.3173 68.7827C66.3019 68.7782 66.2908 68.7749 66.279 68.7855C65.3052 68.9672 64.762 69.9741 64.6255 70.8584C64.5347 71.5493 64.6866 72.2135 64.8395 72.8824C64.9386 73.3156 65.038 73.7508 65.0723 74.1963C65.0839 74.3244 65.21 74.3497 65.2863 74.2812C65.8318 73.5838 66.2051 72.6947 66.4505 71.8167C66.6959 70.9386 66.8152 70.0352 66.753 69.1216C66.7435 69.0565 66.6588 69.0238 66.6085 69.0493C66.7507 68.7282 66.856 68.3939 66.9352 68.058C67.0055 67.7525 67.0567 67.4641 67.0908 67.1566C67.2805 67.7134 67.4892 68.253 67.698 68.7926C67.6789 68.8097 67.658 68.8632 67.6924 68.9015C67.7164 68.9282 67.7363 68.9587 67.7576 68.9913C67.7821 69.0288 67.8086 69.0694 67.8454 69.1104C67.8627 69.1295 67.8627 69.1295 67.8608 69.1658C67.9169 69.8425 67.8642 70.513 67.7561 71.1986C67.7419 71.2982 67.7233 71.3929 67.7048 71.4876C67.6864 71.5817 67.6678 71.6763 67.6536 71.7752C67.6355 71.7742 67.6216 71.778 67.6078 71.7818C67.594 71.7855 67.5802 71.7893 67.562 71.7883C66.7853 72.3816 66.586 73.4261 66.6844 74.3417C66.7704 75.2452 67.183 76.0599 67.5899 76.8634C67.6857 77.0525 67.7812 77.2413 67.872 77.4302C67.9389 77.5432 68.1051 77.4979 68.1107 77.389C68.1464 77.1598 68.1839 76.9307 68.2214 76.7014L68.2216 76.6999L68.2218 76.6985C68.3553 75.8818 68.4892 75.0627 68.5464 74.2282C68.6066 73.4125 68.5426 72.5352 67.9365 71.9368L67.9021 71.8985C67.9533 71.6101 67.9855 71.3389 68.0176 71.0677C68.0763 70.6341 68.0988 70.1986 68.1212 69.763C68.17 69.8748 68.2097 69.9861 68.2494 70.0974C68.2892 70.209 68.329 70.3206 68.3779 70.4327C69.0349 72.1625 69.5793 73.9588 69.484 75.81C69.49 76.047 69.7631 76.0442 69.7533 75.8798C69.8771 73.8299 69.3039 71.8864 68.6008 69.9902C68.8787 70.2769 69.1708 70.5386 69.4642 70.8014L69.4654 70.8024C69.5257 70.8565 69.5861 70.9106 69.6464 70.9649C69.9315 73.3366 70.0741 75.9097 70.0741 78.684C70.0741 84.1613 69.3895 89.2173 68.0201 93.852C67.6112 95.2047 67.0942 96.4775 66.4692 97.6704C66.0235 96.8144 65.4993 96.0009 64.967 95.1918C64.1619 93.9648 63.0844 92.8392 61.9747 91.8696C61.3444 91.3103 60.6598 90.7803 59.9585 90.3056C59.8365 90.2099 59.6765 90.3891 59.7442 90.5141C60.6912 92.2186 61.6383 93.9231 62.8105 95.4825C63.7037 96.6733 64.7372 97.752 65.9216 98.6489C65.85 98.7689 65.7772 98.888 65.7032 99.0063C64.9127 98.9957 64.1257 98.9601 63.3372 98.8702C63.3456 98.8426 63.354 98.8149 63.3346 98.7792C61.2353 95.8972 59.0696 92.9356 56.0145 90.9642C55.23 90.4653 54.3828 90.0234 53.4937 89.7198C53.3272 89.6714 53.2226 89.8666 53.3181 89.9997C55.6568 92.5903 58.1208 95.0668 60.6918 97.4391C61.1628 97.8769 61.6241 98.2969 62.1132 98.7249C60.9253 98.5601 59.7625 98.3123 58.6069 97.9914L58.3572 97.9188C58.3365 97.8375 58.2882 97.7483 58.2314 97.6866C57.9837 97.3588 57.7456 97.0489 57.4798 96.7309C56.9482 96.0949 56.372 95.5062 55.7694 94.9549C54.592 93.8603 53.2809 92.9075 51.864 92.1044C51.0627 91.6608 50.2349 91.2546 49.3722 90.9135C49.2515 90.8634 49.1276 91.0229 49.2037 91.1203C49.2997 91.2666 49.3954 91.413 49.4911 91.5594L49.4925 91.5617C50.4664 93.0519 51.4377 94.5383 52.6843 95.8181C53.5624 96.7052 54.5127 97.5532 55.7432 97.926C56.4923 98.1438 57.2918 98.1957 58.0803 98.1843C59.5328 98.6216 61.0272 98.9207 62.5454 99.0913C62.5495 99.0989 62.5519 99.1033 62.5554 99.1064C62.5601 99.1106 62.5669 99.1126 62.5829 99.1173C60.0688 99.7403 57.5908 100.991 55.6477 102.667C55.567 102.734 55.6264 102.887 55.7361 102.874C58.483 103.025 61.5107 101.754 63.0403 99.4007C63.0861 99.399 63.1307 99.3517 63.1571 99.3143C63.221 99.3028 63.2475 99.2653 63.2739 99.2279C63.2921 99.2181 63.3123 99.2013 63.3325 99.1846C63.3526 99.1679 63.3727 99.1513 63.3907 99.1415C64.0904 99.2356 64.8047 99.2814 65.5208 99.2925C65.0874 99.96 64.6154 100.599 64.105 101.21C63.9551 101.347 63.8077 101.486 63.6627 101.628C63.1961 102.089 62.747 102.574 62.3254 103.08C61.6875 103.671 61.005 104.229 60.2781 104.754C58.2939 106.171 55.7909 107.207 52.7693 107.862C53.0849 106.648 53.2137 105.401 53.3273 104.151C53.462 102.689 53.3204 101.138 53.0564 99.6879C52.9118 98.8576 52.7065 98.0166 52.4536 97.2083C52.4178 97.0575 52.181 97.098 52.1562 97.2379C51.835 99.1613 51.5139 101.085 51.4593 103.035C51.4107 104.715 51.5908 106.394 52.0742 108.004L52.0438 108.009C51.2493 107.379 50.4784 106.731 49.7609 106.013L49.7629 106.012C49.786 105.995 49.8087 105.979 49.8156 105.94C49.9689 102.378 50.1198 98.7119 48.9582 95.2665C48.6553 94.3874 48.268 93.514 47.7616 92.7226C47.6615 92.581 47.4581 92.6686 47.4499 92.8322C47.6654 96.3156 48.0499 99.7878 48.5831 103.245C48.6788 103.881 48.778 104.497 48.8939 105.137C48.0674 104.268 47.3122 103.349 46.6082 102.378C46.5582 102.308 46.5081 102.237 46.4581 102.166C46.4926 102.09 46.5103 101.99 46.5043 101.906C46.5147 101.495 46.5216 101.105 46.5118 100.69C46.4922 99.8615 46.4083 99.0421 46.2804 98.2354C46.0412 96.6457 45.6093 95.0836 45.0013 93.5726C44.6508 92.7264 44.2563 91.893 43.794 91.0887C43.7308 90.9743 43.5345 91.0219 43.5334 91.1455L43.5118 91.3787L43.4843 91.6712C43.3177 93.4434 43.1515 95.211 43.3293 96.9886C43.4635 98.2296 43.6786 99.485 44.4088 100.543C44.8591 101.18 45.4522 101.719 46.0761 102.201C46.9398 103.448 47.9224 104.613 49.0038 105.692C49.0023 105.7 49.0014 105.705 49.0022 105.71C49.0032 105.716 49.0073 105.722 49.0169 105.736C46.6622 104.657 43.9449 104.091 41.3804 104.192C41.2757 104.194 41.227 104.351 41.321 104.409C43.3752 106.239 46.5354 107.131 49.1981 106.243C49.2351 106.27 49.2993 106.261 49.3433 106.248C49.4005 106.279 49.4445 106.266 49.4885 106.253C49.5034 106.256 49.5214 106.256 49.5403 106.256C49.5472 106.256 49.5542 106.256 49.5612 106.256C49.5874 106.255 49.6135 106.255 49.6337 106.258C50.2587 106.91 50.9516 107.515 51.6737 108.078C51.249 108.154 50.8148 108.224 50.3712 108.286C49.6798 108.271 48.9858 108.302 48.2976 108.372C47.703 108.436 47.1076 108.524 46.5179 108.641C45.6559 108.683 44.7653 108.704 43.8461 108.704C40.7915 108.704 38.4741 108.388 36.8941 107.756C35.4195 107.019 34.4188 105.649 33.8921 103.648C33.4708 101.647 33.2601 98.8027 33.2601 95.116ZM52.5314 107.912L52.4171 107.936C52.4271 107.733 52.4299 107.528 52.4327 107.323C52.4353 107.133 52.4379 106.943 52.4462 106.758C52.4755 106.124 52.5048 105.49 52.5174 104.832C52.5593 103.54 52.6417 102.255 52.7241 100.97C52.7252 100.846 52.5431 100.814 52.542 100.937C52.4798 102.226 52.401 103.491 52.3186 104.776C52.2952 105.336 52.2519 105.909 52.2097 106.469L52.1974 106.632L52.1973 106.634C52.1855 106.816 52.1737 107 52.1383 107.199C51.8398 105.825 51.7138 104.421 51.7771 103.009C51.8294 101.306 52.0876 99.6188 52.3661 97.9354C52.8076 99.5611 53.0527 101.234 53.0884 102.912C53.107 103.864 53.0613 104.825 52.9346 105.773C52.8425 106.49 52.6925 107.195 52.5314 107.912ZM65.6701 96.7051C65.9091 97.0995 66.127 97.5053 66.3366 97.9191C66.3152 97.9587 66.2936 97.9982 66.2719 98.0377C66.2473 98.0824 66.2226 98.1269 66.1977 98.1714C66.0968 98.041 65.9969 97.9109 65.9023 97.7806L65.894 97.7691C65.5245 97.2587 65.1548 96.7477 64.7578 96.2292C63.9858 95.1925 63.2498 94.1362 62.5139 93.0799C62.4377 92.9826 62.2746 93.0701 62.3507 93.1675C63.1049 94.2142 63.8313 95.2528 64.5674 96.3093C64.8998 96.7646 65.2252 97.243 65.5425 97.7096L65.6287 97.8364L65.6307 97.8392C65.7351 97.9893 65.8396 98.1394 65.9358 98.3169C64.8467 97.4285 63.8731 96.4083 63.0428 95.2642C62.0228 93.8996 61.1739 92.4191 60.343 90.9288C61.7011 91.9255 62.9354 93.0817 64.0083 94.3715C64.616 95.1048 65.1792 95.8854 65.6701 96.7051ZM58.6981 51.666C58.6192 51.6224 58.5397 51.5792 58.4597 51.5365C58.7204 52.0397 59.0619 52.5026 59.4714 52.9034C59.5444 52.9307 59.6207 52.9525 59.6969 52.9743C59.7732 52.9961 59.8495 53.0178 59.9225 53.0452C59.9412 52.8048 59.9315 52.5683 59.8983 52.3369C59.5104 52.101 59.1104 51.8774 58.6981 51.666ZM61.2255 53.2264C60.8818 52.9729 60.5269 52.7306 60.1608 52.4995C60.1767 52.6952 60.1774 52.8935 60.161 53.0938C60.5195 53.1901 60.8699 53.2558 61.2255 53.2264ZM53.7417 56.2566L53.7864 56.2628L53.8376 56.2693C53.01 56.5283 52.121 56.6924 51.2517 56.7215C50.4683 56.7447 49.7049 56.6307 48.9323 56.4815L49.9679 55.9197C50.4091 55.6689 50.8725 55.4309 51.3731 55.3335C52.2024 55.1285 53.1598 55.2654 53.7024 55.9661C53.5662 55.9486 53.4307 55.9214 53.2943 55.894C53.0994 55.8548 52.9028 55.8153 52.7006 55.8035C52.586 55.7967 52.5402 55.9785 52.6289 56.0299C52.9655 56.1649 53.3758 56.2236 53.7417 56.2566ZM69.5951 70.5526C69.4962 69.7835 69.3821 69.0359 69.2527 68.3099C68.6622 68.1166 67.9978 67.8567 67.5895 67.3667C67.8117 67.9981 68.0358 68.5932 68.2772 69.2075C68.6666 69.6686 69.0954 70.0769 69.5282 70.4889L69.5951 70.5526ZM69.2105 68.0771C69.0467 67.1866 68.8595 66.3291 68.649 65.5044C68.6234 65.5803 68.5956 65.6552 68.5655 65.729C68.5045 65.8529 68.3593 65.8448 68.3114 65.7146C68.2009 65.3658 68.0679 65.0213 67.9344 64.6758C67.7275 64.1402 67.5196 63.6021 67.3936 63.0418C67.2929 62.6249 67.2775 62.1314 67.4229 61.7063L67.3881 61.62C67.1215 60.9035 66.8246 60.2172 66.4973 59.5613C66.2518 62.0073 66.6573 64.5197 67.4342 66.8483C67.4305 66.9209 67.463 66.9956 67.4956 67.0702C67.8072 67.379 68.1207 67.6515 68.5124 67.8192C68.7364 67.9215 68.9723 68.0027 69.2105 68.0771ZM67.6303 62.2405C67.5981 62.5613 67.6394 62.8972 67.73 63.2246C67.8374 63.6129 67.981 64.0032 68.1247 64.3936C68.1637 64.4994 68.1995 64.6081 68.2359 64.7186L68.2364 64.7203L68.2368 64.7213C68.2895 64.8813 68.3436 65.0459 68.4102 65.2105C68.4333 65.0928 68.4557 64.9744 68.4767 64.8555C68.2245 63.9416 67.9423 63.07 67.6303 62.2405ZM66.5505 69.1754L66.5297 69.2182C66.3849 69.5559 66.202 69.9279 65.9693 70.206C65.893 70.2745 65.7344 70.1745 65.7763 70.0677C65.8502 69.8791 65.9486 69.7045 66.0462 69.5313C66.1145 69.4102 66.1824 69.2896 66.2412 69.1656C65.407 69.4644 64.9801 70.3323 64.9181 71.1843C64.8556 71.6904 64.9383 72.2047 65.0401 72.7019L65.2534 73.8607C65.6346 73.1723 65.9795 72.4818 66.2002 71.7298C66.4419 70.8943 66.5612 69.9982 66.5714 69.1311L66.5505 69.1754ZM76.4674 49.9561C76.451 49.9838 76.4349 50.0116 76.4192 50.0395C76.4967 49.1759 76.6854 48.2918 76.9913 47.4778C77.2698 46.7452 77.6673 46.0837 78.1009 45.427L78.2234 46.5988C78.2862 47.1024 78.3287 47.6216 78.2271 48.1214C78.0989 48.966 77.6059 49.798 76.7509 50.031C76.8192 49.9119 76.8963 49.7971 76.9738 49.6816C77.0846 49.5165 77.1963 49.3501 77.2846 49.1678C77.3347 49.0646 77.1843 48.9526 77.1029 49.0149C76.8493 49.2741 76.638 49.6307 76.4674 49.9561ZM78.0138 56.3061C78.298 56.6178 78.5744 56.9351 78.8431 57.2581C78.9825 57.2539 79.1218 57.2436 79.2605 57.2281C79.9268 57.1393 80.5374 56.922 81.1543 56.7025L81.1572 56.7015C81.2318 56.6749 81.3065 56.6484 81.3814 56.622C81.4488 56.5983 81.5164 56.5747 81.5842 56.5514C80.46 56.044 79.1879 55.9732 78.0138 56.3061ZM75.4763 42.9929C75.5431 42.6946 75.6104 42.3946 75.6756 42.0923L75.7563 42.2844C76.0802 43.0544 76.4014 43.8179 76.4782 44.6579C76.5662 45.5317 76.3003 46.4494 75.6083 46.9795C75.6279 46.8996 75.6486 46.8107 75.6693 46.7218C75.69 46.6329 75.7108 46.544 75.7303 46.4641C75.8272 46.0004 75.9132 45.4802 75.8614 45.0331C75.8394 44.9201 75.6906 44.9367 75.6766 45.0449C75.6546 45.214 75.6372 45.3797 75.6199 45.544C75.5857 45.8696 75.5519 46.1907 75.4844 46.5226C75.4673 46.5843 75.454 46.6511 75.4408 46.7179C75.4275 46.7851 75.4141 46.8523 75.3968 46.9143C74.9159 46.2442 74.9923 45.3743 75.1267 44.6222C75.2328 44.0796 75.3541 43.5383 75.4763 42.9929ZM70.2847 49.7269C69.4528 48.9362 69.1612 47.7966 68.9369 46.7027C70.4171 47.5809 71.7016 48.8362 72.6699 50.2689C72.0606 50.0216 71.4764 49.7227 71.033 49.1861C70.939 49.0634 70.7559 49.2037 70.8499 49.3264C71.2885 49.8991 71.9245 50.2233 72.5651 50.5114C71.7695 50.5691 70.9238 50.3083 70.2847 49.7269ZM77.984 52.1046C78.214 51.182 78.7117 50.314 79.4381 49.6601C80.1919 51.1922 79.7697 53.1708 78.5047 54.302C78.7659 53.4204 78.8471 52.5145 78.7434 51.6203C78.7261 51.4712 78.521 51.4985 78.5383 51.6476C78.6232 52.686 78.4356 53.7059 78.0569 54.6451L77.9958 54.6918C77.9143 54.3324 77.8531 53.9574 77.8436 53.6077C77.8011 53.0885 77.8667 52.5839 77.984 52.1046ZM68.0592 76.0841C68.1387 75.5306 68.2176 74.9812 68.2811 74.4317C68.3567 73.6715 68.3652 72.7983 67.8336 72.1676C67.8213 72.2307 67.8132 72.2985 67.8052 72.3663C67.7971 72.4341 67.7891 72.5019 67.7767 72.5649C67.7353 72.9007 67.7267 73.2224 67.7179 73.5493C67.7134 73.7151 67.7089 73.8821 67.7001 74.0531C67.6945 74.162 67.5475 74.1901 67.5168 74.0792C67.4304 73.6375 67.4756 73.1122 67.5362 72.6423L67.5412 72.6114C67.5469 72.5759 67.5527 72.5389 67.5586 72.5012L67.5774 72.378L67.5776 72.377L67.5778 72.3757L67.578 72.3742L67.5987 72.2391C67.6051 72.1977 67.6115 72.1574 67.6177 72.1191C66.969 72.7014 66.7753 73.637 66.931 74.5012C67.0731 75.3329 67.4528 76.0693 67.8356 76.8119L67.9307 76.9966C67.9722 76.6904 68.0158 76.3865 68.0592 76.0841ZM63.591 69.7444C64.2644 69.036 64.6931 68.1319 64.8506 67.1942C64.9302 66.7073 64.9564 66.1991 64.8737 65.6848C64.837 65.3369 64.7468 64.9677 64.6376 64.6157L64.5804 64.6671C64.2759 65.6329 64.1682 66.6643 64.3336 67.693C64.3624 67.8402 64.16 67.8834 64.1312 67.7362C63.9583 66.8527 63.9687 65.9432 64.1606 65.0439C62.9874 66.2702 62.7204 68.2755 63.591 69.7444ZM61.3321 62.8569C61.1938 62.9186 61.0553 62.9804 60.9155 63.0409C62.2911 63.537 63.8265 63.4051 65.1168 62.7315C65.1653 62.6707 65.2096 62.6051 65.2538 62.5395C65.2981 62.4737 65.3427 62.4076 65.3913 62.3466C64.6786 62.0516 63.9147 62.0449 63.1796 62.1855C62.522 62.3259 61.9301 62.5901 61.3321 62.8569ZM47.6883 59.8381C47.3873 59.8906 47.0843 59.9432 46.7802 59.9987L46.9265 59.8509C47.5139 59.2568 48.0963 58.6677 48.843 58.275C49.6165 57.8592 50.5661 57.7536 51.3207 58.1899C51.2406 58.2023 51.152 58.2169 51.0632 58.2316C50.972 58.2467 50.8804 58.2618 50.798 58.2745C50.3325 58.3625 49.819 58.4822 49.4258 58.7013C49.3298 58.7648 49.4021 58.8959 49.5074 58.8675C49.6722 58.823 49.8319 58.7757 49.9904 58.7287L49.9914 58.7284C50.305 58.6354 50.6139 58.5439 50.9461 58.4792C51.01 58.4714 51.0772 58.458 51.1443 58.4446C51.211 58.4313 51.278 58.418 51.3415 58.4102C50.9066 59.1111 50.0737 59.3735 49.3275 59.5372C48.7853 59.647 48.2392 59.7421 47.6883 59.8381ZM55.897 62.0561C55.485 63.1273 54.5438 63.833 53.6192 64.459C53.8638 62.7553 54.5317 61.0881 55.4845 59.6451C55.4893 60.3026 55.4369 60.9568 55.1109 61.5718C55.0335 61.7056 55.2332 61.8211 55.3106 61.6873C55.6717 61.0628 55.7278 60.3512 55.7487 59.6491C56.1066 60.3619 56.1894 61.2431 55.897 62.0561ZM59.3256 62.5803C58.5806 63.4589 57.628 63.9795 56.6182 64.4967C56.8353 63.9676 57.0875 63.4289 57.3397 62.8903L57.3697 62.8232C57.5593 62.3983 57.7403 61.9926 57.9731 61.59C58.4152 60.7742 59.0384 60.0037 59.9859 59.748C59.5588 60.6915 59.043 61.5836 58.3052 62.3474C58.2923 62.3697 58.3238 62.4177 58.3367 62.3954C59.2148 61.5937 59.8173 60.6029 60.3311 59.5607C60.4253 60.6271 60.0226 61.7334 59.3256 62.5803ZM60.0355 56.3841C59.4224 56.6248 58.7722 56.725 58.1348 56.8029C58.2709 56.6884 58.4102 56.5862 58.5463 56.4864C58.6408 56.417 58.7338 56.3487 58.8231 56.2783L58.8272 56.2751C59.1525 56.0187 59.4778 55.7623 59.8123 55.5408C60.4361 55.1278 61.173 54.9289 61.8647 55.2693L61.826 55.3362C61.3039 55.7783 60.6836 56.1339 60.0355 56.3841ZM62.3916 58.6094C62.4537 59.2703 62.3439 59.9211 62.1991 60.5813C61.8163 59.3482 61.5961 58.09 61.5385 56.8067L61.5643 56.7621C62.0511 57.2519 62.333 57.8911 62.3916 58.6094ZM55.1459 54.033C54.2056 54.1738 53.2131 54.0464 52.331 53.6256C53.4578 52.3427 55.4472 51.9753 56.9766 52.7108C56.0621 52.807 55.1941 53.0788 54.4077 53.5169C54.2766 53.59 54.3804 53.769 54.5115 53.696C55.4383 53.22 56.4523 53.0028 57.4649 52.9931L57.5315 53.0316C57.2307 53.2446 56.9076 53.4447 56.5882 53.5873C56.1248 53.8253 55.6335 53.9579 55.1459 54.033ZM4.57142 70.64C5.761 70.9082 6.85636 71.4203 7.92187 71.9984C8.21866 72.1515 8.51809 72.3164 8.81958 72.4824C9.55887 72.8895 10.3111 73.3038 11.0667 73.5676C9.94926 73.4895 8.81612 73.3411 7.73645 72.8993C6.52495 72.3997 5.53328 71.5529 4.57142 70.64ZM12.0903 71.1246C11.9917 70.0551 11.8894 68.9451 11.4651 67.9602C12.336 68.8649 12.75 70.187 12.7795 71.4515C12.7753 71.6373 12.7675 71.826 12.7596 72.0162C12.7316 72.6927 12.7029 73.3873 12.8338 74.0257C12.4338 73.2325 12.2096 72.2946 12.1172 71.4145C12.1081 71.3183 12.0992 71.2216 12.0903 71.1246ZM12.1457 76.6705C12.9744 76.6537 13.7732 76.7031 14.5328 76.9094C14.723 76.9603 14.9128 77.0151 15.102 77.0697C15.5576 77.2013 16.01 77.3319 16.4568 77.4047C15.1666 77.8844 13.7839 78.1493 12.3981 78.001C11.0123 77.8526 9.73486 77.3241 8.6223 76.5352C9.56046 76.7138 10.5343 76.6967 11.4984 76.6797H11.4995H11.5007C11.7164 76.6759 11.9315 76.6721 12.1457 76.6705ZM15.0666 69.7772L15.8848 73.843C16.0682 74.7313 16.3332 75.7188 16.8996 76.4583C15.9047 75.8636 15.0449 75.0746 14.6575 73.9384C14.1964 72.6159 14.5845 71.3503 14.9786 70.0654C15.008 69.9695 15.0375 69.8734 15.0666 69.7772ZM5.43281 89.3528C3.98992 90.0771 2.59658 90.8843 1.39798 91.9802C3.12776 91.6239 4.80799 91.1847 6.27615 90.2411C7.58079 89.3975 8.60547 88.2722 9.54146 87.1105C8.67799 87.7354 7.6536 88.2417 6.64609 88.7397C6.23486 88.943 5.82633 89.1448 5.43281 89.3528ZM7.65087 84.1324C7.76363 84.1964 7.87605 84.2604 7.98807 84.3236C9.02019 84.8925 10.2159 85.3615 11.3872 85.5281C10.5899 85.1852 9.85356 84.6257 9.13556 84.0802C8.9336 83.9267 8.73266 83.774 8.53263 83.6279C7.12838 82.6977 5.36837 82.1438 3.71688 82.4068C5.11614 82.6929 6.4071 83.4261 7.65087 84.1324ZM15.8318 85.8664C15.0281 86.5394 14.3661 87.3748 13.7537 88.2932C13.5921 88.5289 13.4321 88.7674 13.2718 89.0064L13.2713 89.0073C12.5559 90.0739 11.8333 91.1513 10.9239 92.0407C12.6329 91.4254 14.1828 90.4317 15.3998 89.0302C16.6167 87.6287 17.3798 85.9159 17.8376 84.1408C17.418 84.5736 16.9311 84.9684 16.4407 85.366C16.2368 85.5313 16.0323 85.6972 15.8318 85.8664ZM13.5099 82.0547L8.44391 79.8542C8.52583 79.958 8.60736 80.062 8.6888 80.1659L8.69053 80.1681L8.69187 80.1698C9.79606 81.5785 10.8837 82.9659 12.68 83.4686C14.2165 83.9102 15.7332 83.571 17.1404 82.9365C15.9012 82.9926 14.6203 82.5305 13.5099 82.0547ZM6.26596 106.766C6.98403 105.555 7.93636 104.534 8.95069 103.569C9.22406 103.298 9.51136 103.028 9.80056 102.757L9.80096 102.756C10.5117 102.089 11.2347 101.41 11.7938 100.674C11.3102 101.873 10.7438 103.065 9.87416 104.094C8.89414 105.246 7.61106 106.034 6.26596 106.766ZM9.47516 98.68C8.26532 98.4075 7.00949 98.1246 5.77661 98.24C7.08025 97.6056 8.67983 97.6215 10.0792 98.0392C10.2822 98.1101 10.4872 98.186 10.6937 98.2625C11.4265 98.5339 12.1785 98.8124 12.926 98.8959C11.9123 99.0529 10.8023 98.9653 9.80276 98.7535C9.69456 98.7294 9.58596 98.705 9.47696 98.6804L9.47516 98.68ZM15.586 100.593C15.8625 99.677 16.2011 98.8171 16.6982 98.0563C16.8219 97.8653 16.9498 97.6761 17.0773 97.4875C17.3838 97.0342 17.688 96.584 17.927 96.1193C17.9947 97.7072 17.7934 99.3203 17.1372 100.79C16.4809 102.259 15.4457 103.474 14.1832 104.415C14.7134 103.448 15.0412 102.372 15.3658 101.307C15.4386 101.068 15.5113 100.83 15.586 100.593ZM9.05439 94.9311L13.8114 95.4797C14.8524 95.5945 16.0314 95.6549 17.0452 95.2961C16.0378 96.1771 14.8652 96.8407 13.4793 96.8617C11.8624 96.8974 10.6105 96.0205 9.33936 95.1302C9.24456 95.0638 9.14956 94.9973 9.05439 94.9311ZM12.8955 23.4842C11.2942 22.645 9.80496 21.6075 8.49824 20.3652C9.59796 20.9287 10.754 21.3977 11.9096 21.8664C13.8359 22.6478 15.7607 23.4287 17.4207 24.646C16.3878 24.3424 15.3374 23.9973 14.3636 23.544C14.3049 23.5209 14.2695 23.6107 14.3281 23.6339C15.5892 24.3044 16.8976 24.855 18.2532 25.2858C18.3 25.3389 18.3469 25.392 18.4055 25.4152C16.4685 24.9973 14.6317 24.4113 12.8955 23.4842ZM7.77778 14.5422C7.26275 13.7852 6.80069 12.9798 6.42093 12.1377C7.6205 13.9955 8.96715 15.7383 10.4846 17.3061C10.4062 17.2453 10.3311 17.1923 10.2587 17.1412C10.1634 17.0739 10.0729 17.01 9.98616 16.9364C9.13626 16.255 8.40405 15.447 7.77778 14.5422ZM13.1509 14.7575C13.0669 12.9935 13.1944 11.2091 13.4511 9.44099C13.506 10.3451 13.6324 11.2265 13.7593 12.1112C13.8414 12.684 13.9237 13.2584 13.987 13.8411C14.1479 15.3239 14.0681 16.8155 13.9589 18.2956C13.9133 17.7241 13.8647 17.16 13.8161 16.5959C13.7675 16.0313 13.7189 15.4664 13.6732 14.8943C13.6675 14.8228 13.5559 14.848 13.5616 14.9195C13.6056 16.183 13.6496 17.4468 13.7055 18.6803L13.5136 17.8777C13.3045 16.8605 13.1778 15.8066 13.1509 14.7575ZM3.23812 30.1414C4.01951 30.6342 4.84925 31.0509 5.69649 31.398C6.71802 31.807 7.77454 32.0769 8.85938 32.1762C8.97194 32.1897 9.08233 32.193 9.19866 32.1965C9.28736 32.1992 9.37976 32.202 9.47896 32.2095C7.34839 31.7393 5.26366 31.0289 3.23812 30.1414ZM7.61316 24.0132C8.37471 25.6294 9.25296 27.188 10.2964 28.6128C10.8977 29.4729 11.5849 30.2819 12.3205 31.0148L12.9235 31.5783C12.1962 30.5803 11.4622 29.5508 10.7283 28.5213C10.6841 28.4648 10.7633 28.3822 10.8075 28.4386C11.1628 28.8925 11.5163 29.3384 11.8699 29.7844C12.2201 30.226 12.5708 30.6683 12.9226 31.1177C12.1969 29.823 11.4404 28.535 10.488 27.3871C10.1137 26.9361 9.72826 26.5027 9.34376 26.0704C8.74972 25.4024 8.15795 24.7371 7.61316 24.0132ZM54.4793 97.017C53.1708 96.1551 52.0992 94.9108 51.2011 93.6417C50.667 92.9147 50.187 92.1584 49.7154 91.3744C52.2879 92.4984 54.6249 94.0504 56.572 96.0909C56.8462 96.3812 57.1204 96.6716 57.3862 96.9895C57.4262 97.0354 57.4673 97.0831 57.5087 97.1315L57.5743 97.2084L57.6566 97.3046C57.6934 97.3476 57.7299 97.39 57.7655 97.4308C57.7849 97.4665 57.9094 97.6532 58.0326 97.7943C57.2183 97.5425 56.4124 97.2631 55.6053 96.9381C55.4014 96.8638 55.3007 97.1956 55.5046 97.2699C55.962 97.4599 56.4519 97.6324 56.9199 97.7971L56.997 97.8242C56.0962 97.7579 55.2458 97.5256 54.4793 97.017ZM54.8011 91.1171L54.7995 91.1153C54.5462 90.8422 54.293 90.5691 54.0421 90.3004C56.9946 91.5651 59.2992 93.9201 61.2591 96.4156C61.8118 97.1274 62.358 97.8611 62.8964 98.5846L63.0888 98.8431C63.061 98.835 63.0333 98.827 63.0152 98.8368C61.4565 96.9092 59.763 95.0779 57.9539 93.3785C57.8971 93.3168 57.808 93.4113 57.8648 93.4729C59.5158 95.0963 61.0597 96.824 62.4868 98.638C60.0777 96.4783 57.7589 94.2696 55.5556 91.929C55.3057 91.6613 55.0534 91.3892 54.8011 91.1171ZM56.0878 102.66C57.0848 101.912 58.1386 101.225 59.2699 100.681C60.3288 100.177 61.4277 99.7894 62.557 99.5009C62.1078 99.8367 61.6393 100.137 61.1612 100.419C60.412 100.848 59.6144 101.188 58.7974 101.492C58.7432 101.521 58.7638 101.602 58.818 101.573C60.0893 101.115 61.3747 100.511 62.537 99.7659C60.9281 101.585 58.5004 102.669 56.0878 102.66ZM43.525 94.3622C43.4368 95.9144 43.4999 97.5553 43.9865 99.0447C44.2692 99.9201 44.7897 100.632 45.453 101.245L45.3914 101.147C45.1335 100.734 44.8648 100.305 44.6309 99.8813C44.5177 99.6961 44.8032 99.4993 44.9164 99.6845C45.3454 100.442 45.8017 101.162 46.2818 101.866C46.2733 101.679 46.2922 101.456 46.2993 101.416C46.2973 101.372 46.2955 101.327 46.2938 101.281C46.2919 101.229 46.2901 101.177 46.2884 101.125C46.285 101.026 46.2817 100.927 46.2774 100.834C46.2676 100.42 46.234 100.022 46.2004 99.624C45.9485 96.8149 45.0874 94.1449 43.7754 91.663C43.6558 92.5701 43.56 93.4608 43.525 94.3622ZM47.9144 94.6378C47.942 95.0052 47.9697 95.3728 47.9982 95.7353C48.2635 98.9388 48.7013 102.111 49.2403 105.301C49.2541 102.993 49.1228 100.68 48.8427 98.3816C48.8366 98.298 48.9652 98.2796 48.9712 98.3632C49.3276 100.82 49.5114 103.307 49.5298 105.786C49.5501 105.79 49.5668 105.813 49.5834 105.837L49.5945 105.498C49.6239 104.603 49.6536 103.694 49.6646 102.798C49.6861 99.6249 49.3505 96.3471 47.8288 93.5184C47.8579 93.888 47.8862 94.2631 47.9144 94.6378ZM45.4509 104.896C44.2273 104.616 42.9753 104.497 41.7293 104.461C43.6106 105.971 46.1852 106.635 48.5769 106.215C47.2035 106.074 45.8216 105.745 44.542 105.312C44.4813 105.301 44.5157 105.224 44.5764 105.235C45.4049 105.506 46.2405 105.737 47.0939 105.869C47.6437 105.946 48.1971 106.003 48.7577 106.02C47.6946 105.542 46.5935 105.161 45.4509 104.896ZM65.4313 12.3449C66.2859 11.977 67.1061 11.5646 67.8278 10.9796C68.5592 10.3803 69.1479 9.57827 69.4217 8.66771C69.0808 8.98002 68.7375 9.29589 68.3941 9.61178L68.3926 9.61312C68.0444 9.93348 67.6962 10.2539 67.3504 10.5706C67.0539 10.8545 66.7448 11.1347 66.4343 11.4163C66.0973 11.722 65.7582 12.0294 65.4313 12.3449ZM70.5774 12.3645C70.6735 12.638 70.7766 12.9102 70.8796 13.1824C71.1631 13.931 71.4465 14.6797 71.5846 15.4542C71.9497 13.0447 71.2726 10.5171 69.746 8.57184C69.9298 9.85695 70.1479 11.1232 70.5774 12.3645ZM64.2698 17.9251C65.6254 17.2651 66.7789 16.2356 67.6077 14.9853C67.6175 14.9709 67.6236 14.9539 67.6297 14.937C67.6358 14.9201 67.6419 14.9031 67.6517 14.8887C66.3997 15.7457 65.2757 16.7953 64.2698 17.9251ZM67.9619 11.9568C67.6216 12.3362 67.307 12.7332 66.9877 13.1362C66.888 13.2619 66.7878 13.3883 66.6863 13.5149C66.3233 13.9852 65.9456 14.4455 65.5235 14.8756C65.2781 15.1094 65.0277 15.3188 64.7528 15.5326C66.5453 14.5159 68.2244 13.2532 69.062 11.355C69.0866 11.287 69.1075 11.2165 69.1283 11.146C69.1491 11.0761 69.1698 11.0061 69.1941 10.9386C68.7374 11.1975 68.3398 11.5599 67.9619 11.9568ZM69.4905 15.2322C69.7129 16.0796 70.0336 16.9094 70.5017 17.6496C70.3945 17.1547 70.3252 16.6531 70.2558 16.1515C70.2004 15.7503 70.1449 15.3491 70.0701 14.9514C69.9858 14.4723 69.8769 13.9975 69.6944 13.5358C69.5562 13.1676 69.3591 12.8226 69.1522 12.4921C69.1732 13.4134 69.2532 14.3115 69.4905 15.2322ZM64.4127 21.4605C65.6791 20.3602 66.5961 18.9167 67.0459 17.3031C66.3 18.1036 65.7684 19.0687 65.2368 20.0337C64.971 20.5162 64.7053 20.9986 64.4127 21.4605ZM68.7344 19.1054C69.1092 19.9509 69.5774 20.7544 70.178 21.4583C69.7933 20.5638 69.4184 19.655 69.0927 18.7374C69.0365 18.581 68.9826 18.4145 68.9272 18.2433C68.6661 17.4372 68.3718 16.5286 67.6535 16.0922C67.9598 17.102 68.2955 18.1319 68.7344 19.1054ZM61.3597 6.28857C59.8935 5.97155 58.5148 5.2717 57.4068 4.24921C58.8252 4.77504 60.2118 5.44009 61.4657 6.2945C61.4487 6.29062 61.4307 6.29108 61.4127 6.29154C61.3947 6.292 61.3767 6.29246 61.3597 6.28857ZM59.931 9.95368C60.4501 9.2484 61.1064 8.64773 61.8147 8.13222C62.586 7.57617 63.3935 7.17488 64.244 6.82006C64.0113 7.13309 63.7617 7.44222 63.469 7.70489C63.1055 8.04289 62.7028 8.31703 62.2872 8.56987C61.944 8.78431 61.5905 8.98193 61.2369 9.17954C60.7949 9.42664 60.3529 9.67373 59.931 9.95368ZM58.9963 6.60867C57.3297 6.77684 55.6515 6.44795 54.1658 5.66868C54.7025 5.77313 55.2487 5.84513 55.7948 5.91714C56.8871 6.06115 57.9793 6.20517 58.9963 6.60867ZM56.2656 11.0381C56.7027 10.2224 57.2808 9.49403 57.9319 8.83727C58.679 8.07425 59.5161 7.38677 60.3453 6.73409C60.2002 7.56184 59.4611 8.16649 58.8052 8.70299C58.6659 8.81692 58.5304 8.92778 58.4051 9.03705C57.6689 9.67437 56.9588 10.3543 56.2656 11.0381Z" fill="white"/>
</svg>
